<?xml version="1.0" encoding="UTF-8"?>
<svg version="1.1" xmlns="http://www.w3.org/2000/svg" width="152" height="62">
<path d="M0 0 C2.84625 0.1546875 2.84625 0.1546875 5.75 0.3125 C5.75 7.5725 5.75 14.8325 5.75 22.3125 C4.43 22.3125 3.11 22.3125 1.75 22.3125 C1.75 19.0125 1.75 15.7125 1.75 12.3125 C-0.89 12.6425 -3.53 12.9725 -6.25 13.3125 C-6.25 16.2825 -6.25 19.2525 -6.25 22.3125 C-7.57 22.3125 -8.89 22.3125 -10.25 22.3125 C-10.3583667 19.5822611 -10.43746694 16.85635457 -10.5 14.125 C-10.53351562 13.35607422 -10.56703125 12.58714844 -10.6015625 11.79492188 C-10.66782565 7.93509336 -10.48264326 5.74646916 -8.625 2.28125 C-5.56079521 -0.25881449 -3.92739898 -0.2134456 0 0 Z M-6.25 5.3125 C-6.25 6.6325 -6.25 7.9525 -6.25 9.3125 C-3.61 9.3125 -0.97 9.3125 1.75 9.3125 C1.75 7.3325 1.75 5.3525 1.75 3.3125 C-1.96599191 3.11163557 -3.02208445 3.1605563 -6.25 5.3125 Z " fill="#E2E2E2" transform="translate(28.25,22.6875)"/>
<path d="M0 0 C1.32 0 2.64 0 4 0 C4.66 3.3 5.32 6.6 6 10 C6.66 7.69 7.32 5.38 8 3 C9.32 3 10.64 3 12 3 C12.66 4.98 13.32 6.96 14 9 C14.33 9 14.66 9 15 9 C15.33 6.36 15.66 3.72 16 1 C17.32 0.67 18.64 0.34 20 0 C20.34233545 5.70559087 20.41313375 10.12409464 17 15 C14.8125 15.875 14.8125 15.875 13 16 C12.01 14.68 11.02 13.36 10 12 C9.01 13.32 8.02 14.64 7 16 C5.109375 15.76171875 5.109375 15.76171875 3 15 C0.41853928 10.42464984 -0.39960692 5.19488998 0 0 Z " fill="#00CF59" transform="translate(131,29)"/>
<path d="M0 0 C0.99773437 0.02320312 1.99546875 0.04640625 3.0234375 0.0703125 C4.52777344 0.09738281 4.52777344 0.09738281 6.0625 0.125 C6.83335938 0.14820312 7.60421875 0.17140625 8.3984375 0.1953125 C8.3984375 1.1853125 8.3984375 2.1753125 8.3984375 3.1953125 C5.7584375 3.5253125 3.1184375 3.8553125 0.3984375 4.1953125 C0.0684375 5.1853125 -0.2615625 6.1753125 -0.6015625 7.1953125 C0.7596875 7.5665625 0.7596875 7.5665625 2.1484375 7.9453125 C5.59947152 9.27263328 7.29277616 10.16316017 9.3984375 13.1953125 C9.3984375 16.58379075 9.02369405 18.41374181 6.8984375 21.0703125 C3.12436709 22.76864418 -0.52640921 22.4304175 -4.6015625 22.1953125 C-4.6015625 20.8753125 -4.6015625 19.5553125 -4.6015625 18.1953125 C-0.6415625 17.7003125 -0.6415625 17.7003125 3.3984375 17.1953125 C3.7284375 15.8753125 4.0584375 14.5553125 4.3984375 13.1953125 C3.4703125 12.9271875 2.5421875 12.6590625 1.5859375 12.3828125 C-3.01040228 10.67045062 -3.01040228 10.67045062 -4.6015625 8.1953125 C-4.9140625 5.1328125 -4.9140625 5.1328125 -4.6015625 2.1953125 C-2.6015625 0.1953125 -2.6015625 0.1953125 0 0 Z " fill="#00D95E" transform="translate(86.6015625,22.8046875)"/>
<path d="M0 0 C3.20907572 2.1682944 3.91479011 3.72432093 5.0625 7.4375 C5 11 5 11 3 13.9375 C-0.71933162 16.49454049 -2.57136786 16.72468526 -7 16 C-9.4375 14.5 -9.4375 14.5 -11 12 C-11.60984064 9.19243175 -11.66017005 6.80141726 -11 4 C-7.74010218 0.16482609 -4.95707565 -0.84375756 0 0 Z M-7 5 C-7.04080783 6.99958364 -7.04254356 9.00045254 -7 11 C-4.525 11.99 -4.525 11.99 -2 13 C-0.33378575 11.8354799 -0.33378575 11.8354799 1 10 C0.75794651 6.68181015 0.75794651 6.68181015 -1 4 C-4.28894893 3.59371033 -4.28894893 3.59371033 -7 5 Z " fill="#00D35B" transform="translate(125,29)"/>
<path d="M0 0 C4.0743356 0.84881992 5.54405875 2.30225596 8 5.625 C8.625 8.625 8.625 8.625 8 11.625 C5.9375 14.5 5.9375 14.5 3 16.625 C-0.99048721 17.25507693 -3.01685857 17.25521887 -6.4375 15.0625 C-8.63021887 11.64185857 -8.63007693 9.61548721 -8 5.625 C-5.55401113 2.24378009 -4.10703441 0.85563217 0 0 Z M-4 5.625 C-4.04080783 7.62458364 -4.04254356 9.62545254 -4 11.625 C-1.67145537 12.82338209 -1.67145537 12.82338209 1 13.625 C1.99 12.965 2.98 12.305 4 11.625 C3.67 9.315 3.34 7.005 3 4.625 C-0.80621045 4.18652641 -0.80621045 4.18652641 -4 5.625 Z " fill="#D7D7D7" transform="translate(72,28.375)"/>
<path d="M0 0 C1.32 0 2.64 0 4 0 C4 3.96 4 7.92 4 12 C5.65 12 7.3 12 9 12 C9 8.37 9 4.74 9 1 C10.32 0.67 11.64 0.34 13 0 C13 5.28 13 10.56 13 16 C4.7583686 16.36360139 4.7583686 16.36360139 1.71875 14.90625 C-0.80396196 12.1083331 -0.39627098 10.00584214 -0.25 6.3125 C-0.21390625 5.13300781 -0.1778125 3.95351563 -0.140625 2.73828125 C-0.09421875 1.83464844 -0.0478125 0.93101563 0 0 Z " fill="#C9C9C9" transform="translate(37,29)"/>
<path d="M0 0 C8.2416314 -0.36360139 8.2416314 -0.36360139 11.28125 1.09375 C13.80396196 3.8916669 13.39627098 5.99415786 13.25 9.6875 C13.21390625 10.86699219 13.1778125 12.04648437 13.140625 13.26171875 C13.07101563 14.61716797 13.07101563 14.61716797 13 16 C12.01 16 11.02 16 10 16 C9.67 12.04 9.34 8.08 9 4 C7.35 4 5.7 4 4 4 C4 7.96 4 11.92 4 16 C2.68 16 1.36 16 0 16 C0 10.72 0 5.44 0 0 Z " fill="#00D85D" transform="translate(98,29)"/>
<path d="M0 0 C0.99 0.33 1.98 0.66 3 1 C3.33984375 3.74609375 3.33984375 3.74609375 3 7 C0.62890625 9.09765625 0.62890625 9.09765625 -2.4375 11.0625 C-6.04595711 13.76421661 -7.74608254 15.07590695 -8.953125 19.46875 C-9.16303219 22.68732687 -9.21379199 25.78317629 -9 29 C-9.99 29 -10.98 29 -12 29 C-12.16852247 27.39602723 -12.33474886 25.7918131 -12.5 24.1875 C-12.5928125 23.29417969 -12.685625 22.40085937 -12.78125 21.48046875 C-13.23844798 16.29617025 -13.23844798 16.29617025 -11.64453125 14.31640625 C-11.03996094 13.73761719 -10.43539063 13.15882812 -9.8125 12.5625 C-9.17699219 11.94761719 -8.54148437 11.33273438 -7.88671875 10.69921875 C-6 9 -6 9 -3.125 6.875 C-0.60297491 4.64968375 -0.27462423 3.29549073 0 0 Z " fill="#D9D9D9" transform="translate(15,16)"/>
<path d="M0 0 C0.66 0 1.32 0 2 0 C2 0.66 2 1.32 2 2 C3.32 2 4.64 2 6 2 C6 3.32 6 4.64 6 6 C4.68 6 3.36 6 2 6 C2.33 8.31 2.66 10.62 3 13 C3.99 13.33 4.98 13.66 6 14 C6 15.32 6 16.64 6 18 C3.125 17.6875 3.125 17.6875 0 17 C-2.67927341 12.98108988 -2.15601248 10.75838077 -2 6 C-2.66 6 -3.32 6 -4 6 C-2.84826645 3.53199953 -1.95216435 1.95216435 0 0 Z " fill="#C8C8C8" transform="translate(56,27)"/>
<path d="M0 0 C0.99 0.33 1.98 0.66 3 1 C3.34375 3.6953125 3.34375 3.6953125 3 7 C0.59375 9.5546875 0.59375 9.5546875 -2.5 11.875 C-3.5209375 12.65617187 -4.541875 13.43734375 -5.59375 14.2421875 C-6.3878125 14.82226562 -7.181875 15.40234375 -8 16 C-8 11.646639 -5.5575378 10.15019046 -2.62890625 7.1328125 C-0.79149871 4.72699832 -0.36782805 2.97370849 0 0 Z " fill="#CCCCCC" transform="translate(15,16)"/>
</svg>
