<?xml version="1.0" encoding="UTF-8"?>
<svg version="1.1" xmlns="http://www.w3.org/2000/svg" width="1543" height="320">
<path d="M0 0 C29.04 0 58.08 0 88 0 C88 71.61 88 143.22 88 217 C77.11 217 66.22 217 55 217 C53.32768168 215.32768168 53.87783348 213.28794259 53.87091869 211.05506557 C53.87383153 210.34204393 53.87674437 209.62902228 53.87974548 208.89439392 C53.87889106 208.14216586 53.87803663 207.3899378 53.87715632 206.61491495 C53.87549926 204.07520285 53.88102655 201.5355557 53.88647461 198.99584961 C53.88675646 197.18291729 53.88659879 195.36998486 53.8860321 193.55705261 C53.88574404 188.61924287 53.89164219 183.68145719 53.89860606 178.74365306 C53.90483814 173.58932157 53.90544328 168.43498958 53.90663147 163.28065491 C53.90974522 153.51295908 53.91795919 143.74527438 53.92798096 133.97758347 C53.93914075 122.86048188 53.94465221 111.74337978 53.94967639 100.62627399 C53.96014177 77.75084172 53.97848779 54.87542473 54 32 C38.16 32 22.32 32 6 32 C5.505 32.99 5.505 32.99 5 34 C2.03 34 -0.94 34 -4 34 C-4 34.66 -4 35.32 -4 36 C-5.65 36 -7.3 36 -9 36 C-9 36.66 -9 37.32 -9 38 C-10.25 39.625 -10.25 39.625 -12 41 C-13.32 41 -14.64 41 -16 41 C-16 41.66 -16 42.32 -16 43 C-17.375 44.625 -17.375 44.625 -19 46 C-19.66 46 -20.32 46 -21 46 C-21 47.32 -21 48.64 -21 50 C-21.66 50.66 -22.32 51.32 -23 52 C-23.495 52.99 -23.495 52.99 -24 54 C-24.66 54 -25.32 54 -26 54 C-26 55.65 -26 57.3 -26 59 C-26.66 59 -27.32 59 -28 59 C-27.97679687 59.77085937 -27.95359375 60.54171875 -27.9296875 61.3359375 C-27.91164062 62.33882812 -27.89359375 63.34171875 -27.875 64.375 C-27.85179687 65.37273437 -27.82859375 66.37046875 -27.8046875 67.3984375 C-28 70 -28 70 -30 72 C-30.27917295 75.20813626 -30.27917295 75.20813626 -30.1953125 78.9765625 C-30.19106766 80.00443375 -30.19106766 80.00443375 -30.18673706 81.05307007 C-30.17553281 83.24389027 -30.15042859 85.43430316 -30.125 87.625 C-30.11497048 89.1093691 -30.10584458 90.5937446 -30.09765625 92.078125 C-30.07559294 95.71888261 -30.04106176 99.35940156 -30 103 C-29.01 102.67 -28.02 102.34 -27 102 C-27 101.34 -27 100.68 -27 100 C-24.09451118 97.95830515 -22.59857954 97 -19 97 C-19 96.34 -19 95.68 -19 95 C-17.02 95 -15.04 95 -13 95 C-13 94.34 -13 93.68 -13 93 C-11.865625 92.87625 -10.73125 92.7525 -9.5625 92.625 C-7.7990625 92.315625 -7.7990625 92.315625 -6 92 C-5.67 91.34 -5.34 90.68 -5 90 C2.10244999 89.97473213 9.20488848 89.95716799 16.30737305 89.94506836 C18.72567172 89.94002651 21.14396733 89.93319322 23.56225586 89.92456055 C27.02979283 89.91248843 30.49728966 89.90677037 33.96484375 89.90234375 C35.05337143 89.89718246 36.14189911 89.89202118 37.26341248 89.88670349 C38.76485558 89.88659019 38.76485558 89.88659019 40.29663086 89.88647461 C41.62566689 89.88314369 41.62566689 89.88314369 42.98155212 89.87974548 C45 90 45 90 46 91 C46.09998685 93.03709067 46.13080986 95.07764545 46.1328125 97.1171875 C46.13410156 98.36371094 46.13539063 99.61023438 46.13671875 100.89453125 C46.13285156 102.20808594 46.12898438 103.52164063 46.125 104.875 C46.12886719 106.18082031 46.13273437 107.48664063 46.13671875 108.83203125 C46.13542969 110.08113281 46.13414062 111.33023438 46.1328125 112.6171875 C46.13168457 113.76815918 46.13055664 114.91913086 46.12939453 116.10498047 C46 119 46 119 45 122 C28.5 122 12 122 -5 122 C-5 122.66 -5 123.32 -5 124 C-7.31 124 -9.62 124 -12 124 C-12.495 125.485 -12.495 125.485 -13 127 C-13.99 127 -14.98 127 -16 127 C-16.33 127.66 -16.66 128.32 -17 129 C-18.32 129 -19.64 129 -21 129 C-21 129.66 -21 130.32 -21 131 C-21.99 131 -22.98 131 -24 131 C-24.268125 131.598125 -24.53625 132.19625 -24.8125 132.8125 C-25.99917406 134.99847854 -27.09599113 136.41332594 -29 138 C-29.66 138 -30.32 138 -31 138 C-31 164.07 -31 190.14 -31 217 C-41.23 217 -51.46 217 -62 217 C-62 166.18 -62 115.36 -62 63 C-61.67 63 -61.34 63 -61 63 C-60.87625 61.72125 -60.7525 60.4425 -60.625 59.125 C-60.25 55.25 -60.25 55.25 -58 53 C-57.35232207 50.42938689 -57.35232207 50.42938689 -57 48 C-56.34 48 -55.68 48 -55 48 C-55.0928125 46.63875 -55.0928125 46.63875 -55.1875 45.25 C-54.98313144 41.70761168 -54.47346304 40.47346304 -52 38 C-51.34 38 -50.68 38 -50 38 C-50 36.68 -50 35.36 -50 34 C-49.34 34 -48.68 34 -48 34 C-48 33.01 -48 32.02 -48 31 C-46.68799596 29.64567325 -45.35368596 28.31266518 -44 27 C-43.67 26.01 -43.34 25.02 -43 24 C-42.01 24 -41.02 24 -40 24 C-40 23.34 -40 22.68 -40 22 C-39.34 22 -38.68 22 -38 22 C-38 21.01 -38 20.02 -38 19 C-36.36368108 17.95107762 -34.69514137 16.95093297 -33 16 C-32.67 15.34 -32.34 14.68 -32 14 C-31.01 14 -30.02 14 -29 14 C-29 13.34 -29 12.68 -29 12 C-28.05125 11.54625 -27.1025 11.0925 -26.125 10.625 C-22.99686321 9.19761746 -22.99686321 9.19761746 -21 7 C-18.375 6.875 -18.375 6.875 -16 7 C-16 6.34 -16 5.68 -16 5 C-15.030625 4.87625 -14.06125 4.7525 -13.0625 4.625 C-12.051875 4.41875 -11.04125 4.2125 -10 4 C-9.67 3.34 -9.34 2.68 -9 2 C-6.03 2 -3.06 2 0 2 C0 1.34 0 0.68 0 0 Z " fill="#FFFFFF" transform="translate(263,79)"/>
<path d="M0 0 C4.53897705 -0.02465392 9.07791543 -0.04283789 13.61694336 -0.05493164 C15.16219766 -0.0599714 16.70744716 -0.0668032 18.25268555 -0.07543945 C20.46925029 -0.08752076 22.68575218 -0.09323173 24.90234375 -0.09765625 C25.5971434 -0.10281754 26.29194305 -0.10797882 27.00779724 -0.11329651 C28.6722933 -0.11349277 30.33665499 -0.06189129 32 0 C34.11858552 2.11858552 33.21059807 6.84096214 33.24609375 9.77734375 C33.27902754 11.58789554 33.31223926 13.3984423 33.34570312 15.20898438 C33.39318542 18.07735773 33.43761218 20.94570995 33.47680664 23.81420898 C33.51641066 26.57297274 33.5679806 29.33131176 33.62109375 32.08984375 C33.6295079 32.9513353 33.63792206 33.81282684 33.64659119 34.70042419 C33.53304744 39.33002129 33.53304744 39.33002129 36 43 C36.22705078 45.61376953 36.22705078 45.61376953 36.1953125 48.8828125 C36.18886719 50.04941406 36.18242188 51.21601563 36.17578125 52.41796875 C36.15902344 53.64128906 36.14226562 54.86460937 36.125 56.125 C36.11597656 57.35605469 36.10695313 58.58710938 36.09765625 59.85546875 C36.07402548 62.90383815 36.04108054 65.95182382 36 69 C36.66 69 37.32 69 38 69 C38.04898437 69.84304687 38.09796875 70.68609375 38.1484375 71.5546875 C38.22320313 72.65039062 38.29796875 73.74609375 38.375 74.875 C38.47941406 76.51082031 38.47941406 76.51082031 38.5859375 78.1796875 C38.73253491 81.13046474 38.73253491 81.13046474 41 83 C41.40047444 85.32275177 41.7397104 87.65739357 42 90 C42.33 90 42.66 90 43 90 C43 92.64 43 95.28 43 98 C43.66 98 44.32 98 45 98 C45.12375 98.804375 45.2475 99.60875 45.375 100.4375 C45.58125 101.283125 45.7875 102.12875 46 103 C46.99 103.495 46.99 103.495 48 104 C48.8515625 105.84765625 48.8515625 105.84765625 49.625 108.0625 C50.01558594 109.16271484 50.01558594 109.16271484 50.4140625 110.28515625 C50.60742188 110.85105469 50.80078125 111.41695313 51 112 C53.08486562 112.21439736 53.08486562 112.21439736 54.5625 110.6875 C56.22493787 108.94929146 56.22493787 108.94929146 57 106 C57.66 106 58.32 106 59 106 C59 104.68 59 103.36 59 102 C59.66 102 60.32 102 61 102 C61.33 100.35 61.66 98.7 62 97 C62.66 97 63.32 97 64 97 C64 95.02 64 93.04 64 91 C64.66 91 65.32 91 66 91 C66 88.69 66 86.38 66 84 C66.66 83.67 67.32 83.34 68 83 C68.65772428 79.97065509 68.65772428 79.97065509 69 77 C69.66 77 70.32 77 71 77 C71 74.03 71 71.06 71 68 C71.66 68 72.32 68 73 68 C73 63.71 73 59.42 73 55 C73.66 54.67 74.32 54.34 75 54 C75.2862694 51.30847736 75.46743138 48.69902132 75.5625 46 C75.88070725 38.11929275 75.88070725 38.11929275 77 37 C77.20931897 34.83703727 77.36797069 32.6690529 77.5 30.5 C77.88888889 24.11111111 77.88888889 24.11111111 79 23 C81.36398468 22.8992188 83.69811311 22.86026785 86.0625 22.8671875 C86.76898682 22.86623077 87.47547363 22.86527405 88.20336914 22.86428833 C89.69970793 22.86360667 91.19604967 22.86545995 92.69238281 22.86962891 C94.99030157 22.87497743 97.28802486 22.86968349 99.5859375 22.86328125 C101.03645877 22.86394203 102.48697991 22.8652232 103.9375 22.8671875 C104.6291626 22.86516327 105.3208252 22.86313904 106.03344727 22.86105347 C110.88504776 22.88504776 110.88504776 22.88504776 112 24 C112.04063832 25.66617115 112.042721 27.33388095 112 29 C112.66 29 113.32 29 114 29 C114.495 38.405 114.495 38.405 115 48 C115.66 48.33 116.32 48.66 117 49 C117.4140625 51.94140625 117.4140625 51.94140625 117.625 55.5625 C117.73714844 57.35880859 117.73714844 57.35880859 117.8515625 59.19140625 C117.90054687 60.11824219 117.94953125 61.04507813 118 62 C118.33 62 118.66 62 119 62 C119.04898437 62.71285156 119.09796875 63.42570312 119.1484375 64.16015625 C119.5792856 69.67946902 120.07452518 74.78989167 122 80 C122.66 80.33 123.32 80.66 124 81 C124 83.31 124 85.62 124 88 C124.66 88 125.32 88 126 88 C127.94805195 94.75324675 127.94805195 94.75324675 128.5 97.375 C128.665 97.91125 128.83 98.4475 129 99 C129.66 99.33 130.32 99.66 131 100 C131 101.32 131 102.64 131 104 C131.66 104 132.32 104 133 104 C133.33 104.99 133.66 105.98 134 107 C134.66 107.33 135.32 107.66 136 108 C138 111 138 111 138 114 C138.66 114 139.32 114 140 114 C140 112.68 140 111.36 140 110 C140.66 110 141.32 110 142 110 C142 108.68 142 107.36 142 106 C142.66 106 143.32 106 144 106 C144.99 102.04 145.98 98.08 147 94 C147.66 94 148.32 94 149 94 C149 91.36 149 88.72 149 86 C149.99 86 150.98 86 152 86 C152 82.37 152 78.74 152 75 C152.66 75 153.32 75 154 75 C154 69.39 154 63.78 154 58 C154.66 58 155.32 58 156 58 C155.99476318 57.30551758 155.98952637 56.61103516 155.98413086 55.89550781 C155.96305572 52.68034814 155.95024429 49.46520308 155.9375 46.25 C155.92912109 45.15816406 155.92074219 44.06632812 155.91210938 42.94140625 C155.89042732 35.61287237 155.98773637 28.27067984 157 21 C157.33 20.67 157.66 20.34 158 20 C158.15655027 18.51361008 158.25066943 17.02050873 158.31640625 15.52734375 C158.35451416 14.71773193 158.39262207 13.90812012 158.43188477 13.07397461 C158.47498779 12.03893799 158.51809082 11.00390137 158.5625 9.9375 C158.706875 6.658125 158.85125 3.37875 159 0 C169.23 0 179.46 0 190 0 C190.02290839 5.25111196 190.04283563 10.50205178 190.05493164 15.75317383 C190.05997218 17.54094021 190.06680454 19.32870245 190.07543945 21.11645508 C190.0875173 23.68051168 190.09323094 26.24451397 190.09765625 28.80859375 C190.10281754 29.6127623 190.10797882 30.41693085 190.11329651 31.24546814 C190.11349215 33.16401715 190.06201983 35.08245368 190 37 C189.67 37.33 189.34 37.66 189 38 C188.84126045 40.21687994 188.74866163 42.43855298 188.68359375 44.66015625 C188.6524221 45.65685585 188.6524221 45.65685585 188.62062073 46.6736908 C188.55506342 48.80318543 188.49621215 50.93280668 188.4375 53.0625 C188.39432061 54.50326847 188.35070651 55.94402399 188.30664062 57.38476562 C188.19937607 60.9230404 188.09812629 64.46145869 188 68 C187.34 68 186.68 68 186 68 C186.02320313 68.91523438 186.04640625 69.83046875 186.0703125 70.7734375 C186.08835937 71.96195312 186.10640625 73.15046875 186.125 74.375 C186.14820313 75.55835938 186.17140625 76.74171875 186.1953125 77.9609375 C186 81 186 81 184 83 C183.53993654 85.20250992 183.53993654 85.20250992 183.375 87.625 C183.30023437 88.44226563 183.22546875 89.25953125 183.1484375 90.1015625 C183.07496094 91.04128906 183.07496094 91.04128906 183 92 C182.34 92 181.68 92 181 92 C181 94.97 181 97.94 181 101 C180.01 101.495 180.01 101.495 179 102 C178.34444881 104.52733235 178.34444881 104.52733235 178 107 C177.34 107 176.68 107 176 107 C176 108.98 176 110.96 176 113 C175.34 113 174.68 113 174 113 C174 114.65 174 116.3 174 118 C173.01 118.495 173.01 118.495 172 119 C171.34786708 121.02463255 171.34786708 121.02463255 171 123 C170.34 123 169.68 123 169 123 C169 124.32 169 125.64 169 127 C168.34 127 167.68 127 167 127 C165.79371992 129.33214148 164.8345262 131.49642139 164 134 C163.34 134 162.68 134 162 134 C162 134.99 162 135.98 162 137 C160.625 138.6875 160.625 138.6875 159 140 C158.34 140 157.68 140 157 140 C157 140.66 157 141.32 157 142 C155.171875 143.62109375 155.171875 143.62109375 152.75 145.4375 C151.96109375 146.03433594 151.1721875 146.63117188 150.359375 147.24609375 C149.19148438 148.11427734 149.19148438 148.11427734 148 149 C147.32324219 149.55042969 146.64648438 150.10085938 145.94921875 150.66796875 C142.83017142 152.79942194 139.73098933 153.13378049 136 153 C132.76881576 151.56391812 130.25756178 149.73283795 128 147 C128 146.34 128 145.68 128 145 C127.34 145 126.68 145 126 145 C126 144.34 126 143.68 126 143 C125.01 143 124.02 143 123 143 C123 142.01 123 141.02 123 140 C122.34 140 121.68 140 121 140 C121 139.34 121 138.68 121 138 C120.34 138 119.68 138 119 138 C117.375 136.625 117.375 136.625 116 135 C116 134.34 116 133.68 116 133 C115.34 133 114.68 133 114 133 C113.67 132.01 113.34 131.02 113 130 C112.34 129.67 111.68 129.34 111 129 C108.8480563 125.77208445 108.79913557 124.71599191 109 121 C108.34 121 107.68 121 107 121 C106.87625 120.360625 106.7525 119.72125 106.625 119.0625 C106.41875 118.381875 106.2125 117.70125 106 117 C105.34 116.67 104.68 116.34 104 116 C104 113.69 104 111.38 104 109 C103.34 109 102.68 109 102 109 C101.87625 107.88625 101.7525 106.7725 101.625 105.625 C101.3534187 101.96896323 101.3534187 101.96896323 99 100 C98.5859375 97.8359375 98.5859375 97.8359375 98.375 95.375 C98.30023437 94.55773437 98.22546875 93.74046875 98.1484375 92.8984375 C98.07496094 91.95871094 98.07496094 91.95871094 98 91 C97.67 91 97.34 91 97 91 C97 85.72 97 80.44 97 75 C96.34 75 95.68 75 95 75 C95 77.64 95 80.28 95 83 C94.34 83 93.68 83 93 83 C93.02320313 83.90363281 93.04640625 84.80726563 93.0703125 85.73828125 C93.08835937 86.91777344 93.10640625 88.09726563 93.125 89.3125 C93.14820313 90.48425781 93.17140625 91.65601563 93.1953125 92.86328125 C93 96 93 96 91 99 C90.39578508 101.38082853 89.8609677 103.77975094 89.375 106.1875 C89.11460938 107.45980469 88.85421875 108.73210937 88.5859375 110.04296875 C88.39257812 111.01878906 88.19921875 111.99460937 88 113 C87.34 113 86.68 113 86 113 C86 114.65 86 116.3 86 118 C85.01 118.495 85.01 118.495 84 119 C83.34786708 121.02463255 83.34786708 121.02463255 83 123 C82.34 123 81.68 123 81 123 C81.103125 123.721875 81.20625 124.44375 81.3125 125.1875 C80.8714033 129.1573703 78.99516318 130.50403068 76 133 C75.34 133 74.68 133 74 133 C74 133.99 74 134.98 74 136 C73.34 136 72.68 136 72 136 C71.7525 136.57234375 71.505 137.1446875 71.25 137.734375 C69.80683801 140.35010611 68.11783778 142.14773456 66 144.25 C65.29875 144.95640625 64.5975 145.6628125 63.875 146.390625 C62 148 62 148 60 148 C60 148.66 60 149.32 60 150 C59.01 150 58.02 150 57 150 C57 150.66 57 151.32 57 152 C50.375 153.125 50.375 153.125 47 152 C47 151.34 47 150.68 47 150 C45.68 150 44.36 150 43 150 C41.25 148.625 41.25 148.625 40 147 C40 146.34 40 145.68 40 145 C39.01 145 38.02 145 37 145 C37 144.34 37 143.68 37 143 C36.34 143 35.68 143 35 143 C35 142.34 35 141.68 35 141 C34.34 141 33.68 141 33 141 C33 140.01 33 139.02 33 138 C32.34 138 31.68 138 31 138 C29.375 136.625 29.375 136.625 28 135 C28 134.34 28 133.68 28 133 C27.34 133 26.68 133 26 133 C25.67 132.01 25.34 131.02 25 130 C24.34 129.67 23.68 129.34 23 129 C23 127.68 23 126.36 23 125 C22.34 125 21.68 125 21 125 C21 123.68 21 122.36 21 121 C20.34 121 19.68 121 19 121 C18.87625 120.360625 18.7525 119.72125 18.625 119.0625 C18.41875 118.381875 18.2125 117.70125 18 117 C17.34 116.67 16.68 116.34 16 116 C16 114.35 16 112.7 16 111 C15.34 111 14.68 111 14 111 C13.690625 109.865625 13.38125 108.73125 13.0625 107.5625 C12.37075469 104.21224901 12.37075469 104.21224901 11 103 C10.95919217 101.00041636 10.95745644 98.99954746 11 97 C10.34 97 9.68 97 9 97 C9 94.03 9 91.06 9 88 C8.34 88 7.68 88 7 88 C6.67 84.04 6.34 80.08 6 76 C5.34 76 4.68 76 4 76 C3.67 70.39 3.34 64.78 3 59 C2.67 59 2.34 59 2 59 C1.97494385 57.70787598 1.9498877 56.41575195 1.92407227 55.08447266 C1.83008376 50.30230344 1.72984234 45.52028238 1.62768555 40.73828125 C1.58430423 38.66637634 1.54263154 36.59443493 1.50268555 34.52246094 C1.44506035 31.54871609 1.38134375 28.57515552 1.31640625 25.6015625 C1.29133751 24.20618759 1.29133751 24.20618759 1.26576233 22.78262329 C1.24581711 21.92188202 1.22587189 21.06114075 1.20532227 20.17431641 C1.18977798 19.41486725 1.1742337 18.65541809 1.15821838 17.87295532 C1.10872873 15.90884279 1.10872873 15.90884279 0 14 C-0.07116382 11.62597499 -0.08409085 9.24999323 -0.0625 6.875 C-0.05347656 5.59367188 -0.04445313 4.31234375 -0.03515625 2.9921875 C-0.02355469 2.00476563 -0.01195312 1.01734375 0 0 Z " fill="#00FF6E" transform="translate(1312,146)"/>
<path d="M0 0 C24.75 0 49.5 0 75 0 C75 10.23 75 20.46 75 31 C70.33101562 31.04898438 65.66203125 31.09796875 60.8515625 31.1484375 C57.89841545 31.18381183 54.94529835 31.21976484 51.9921875 31.2578125 C47.30212631 31.31818346 42.61210714 31.37637903 37.921875 31.421875 C34.14163767 31.4586777 30.36162809 31.50502343 26.58158493 31.55806351 C25.13749552 31.57663427 23.69335724 31.59173228 22.2491951 31.60334396 C20.23064937 31.62015992 18.21222812 31.65033105 16.19384766 31.68115234 C15.04357086 31.69447601 13.89329407 31.70779968 12.7081604 31.7215271 C9.85191072 31.72737638 9.85191072 31.72737638 8 34 C4.375 34.125 4.375 34.125 1 34 C1 34.66 1 35.32 1 36 C0.21625 36.45375 -0.5675 36.9075 -1.375 37.375 C-4.1235949 39.07651113 -4.87921032 40.04519084 -6 43 C-6.66 43 -7.32 43 -8 43 C-7.86076462 46.25031784 -7.71245815 49.50016061 -7.5625 52.75 C-7.52318359 53.67039063 -7.48386719 54.59078125 -7.44335938 55.5390625 C-7.38051758 56.87324219 -7.38051758 56.87324219 -7.31640625 58.234375 C-7.26141968 59.45979004 -7.26141968 59.45979004 -7.20532227 60.70996094 C-7.00865725 62.9034423 -6.59699406 64.88396413 -6 67 C-5.34 67 -4.68 67 -4 67 C-2.31267723 68.98260426 -0.64633943 70.9832342 1 73 C1.99 73.495 1.99 73.495 3 74 C3 74.66 3 75.32 3 76 C3.7425 75.9175 4.485 75.835 5.25 75.75 C8.82049467 76.07459042 9.60237746 77.44769213 12 80 C14.1381966 80.7872678 14.1381966 80.7872678 16 81 C16 81.66 16 82.32 16 83 C17.65 83 19.3 83 21 83 C21.33 83.66 21.66 84.32 22 85 C24.02463255 85.65213292 24.02463255 85.65213292 26 86 C26 86.66 26 87.32 26 88 C27.98 88 29.96 88 32 88 C32 88.33 32 88.66 32 89 C33.4540625 89.185625 33.4540625 89.185625 34.9375 89.375 C35.948125 89.58125 36.95875 89.7875 38 90 C38.33 90.66 38.66 91.32 39 92 C41.52733235 92.65555119 41.52733235 92.65555119 44 93 C44 93.66 44 94.32 44 95 C44.886875 94.9175 45.77375 94.835 46.6875 94.75 C50.73187485 95.05523584 52.02977495 96.35088036 55 99 C56.485 99.495 56.485 99.495 58 100 C58 100.66 58 101.32 58 102 C59.32 102 60.64 102 62 102 C63.75 103.375 63.75 103.375 65 105 C65 105.66 65 106.32 65 107 C65.598125 107.12375 66.19625 107.2475 66.8125 107.375 C69 108 69 108 72 110 C72 110.66 72 111.32 72 112 C73.485 112.495 73.485 112.495 75 113 C75 113.66 75 114.32 75 115 C75.66 115 76.32 115 77 115 C77 116.32 77 117.64 77 119 C77.99 119 78.98 119 80 119 C82.29013653 122.4352048 82.17842973 123.985331 82 128 C82.66 128 83.32 128 84 128 C84.12375 129.134375 84.2475 130.26875 84.375 131.4375 C84.58125 132.613125 84.7875 133.78875 85 135 C85.66 135.33 86.32 135.66 87 136 C87 147.55 87 159.1 87 171 C86.34 171.33 85.68 171.66 85 172 C84.34227572 175.02934491 84.34227572 175.02934491 84 178 C83.34 178 82.68 178 82 178 C82 179.65 82 181.3 82 183 C81.34 183 80.68 183 80 183 C79.67 184.65 79.34 186.3 79 188 C78.34 188 77.68 188 77 188 C77 188.99 77 189.98 77 191 C76.34 191 75.68 191 75 191 C75 191.99 75 192.98 75 194 C74.34 194 73.68 194 73 194 C72.62488281 194.89332031 72.62488281 194.89332031 72.2421875 195.8046875 C70.82821408 198.3035965 69.44314686 199.45418472 67.125 201.125 C66.44695312 201.62257813 65.76890625 202.12015625 65.0703125 202.6328125 C63 204 63 204 60.859375 205.046875 C58.81008294 205.95433531 58.81008294 205.95433531 57.125 208.125 C55 210 55 210 51.75 210.25 C50.8425 210.1675 49.935 210.085 49 210 C49 210.66 49 211.32 49 212 C48.030625 212.309375 47.06125 212.61875 46.0625 212.9375 C43.15934208 213.69523342 43.15934208 213.69523342 42 215 C39.66702567 215.04092937 37.33294775 215.04241723 35 215 C35 215.66 35 216.32 35 217 C25.25576086 217.02313836 15.51152822 217.04092273 5.76726723 217.05181217 C1.24294695 217.05703772 -3.28135458 217.06412944 -7.80566406 217.07543945 C-12.16930959 217.08627995 -16.53293705 217.09227932 -20.896595 217.09487724 C-22.56401479 217.09672939 -24.23143355 217.10034599 -25.89884567 217.10573006 C-28.22864697 217.11295589 -30.55837295 217.11399029 -32.88818359 217.11352539 C-33.58229843 217.11712067 -34.27641327 217.12071594 -34.99156189 217.12442017 C-39.77189568 217.11405216 -39.77189568 217.11405216 -42 216 C-42.08706286 211.58345745 -42.14041378 207.16713543 -42.1875 202.75 C-42.21263672 201.49574219 -42.23777344 200.24148438 -42.26367188 198.94921875 C-42.27333984 197.74394531 -42.28300781 196.53867187 -42.29296875 195.296875 C-42.3086792 194.18666992 -42.32438965 193.07646484 -42.34057617 191.93261719 C-41.94635162 188.53804706 -41.40645896 187.3927294 -39 185 C-36.24751282 184.48101807 -36.24751282 184.48101807 -32.8762207 184.45410156 C-31.61513992 184.43438293 -30.35405914 184.41466431 -29.05476379 184.39434814 C-27.67843672 184.39268499 -26.30210907 184.39145412 -24.92578125 184.390625 C-23.51757399 184.37564534 -22.10938432 184.35891863 -20.70121765 184.34051514 C-16.99733683 184.29680425 -13.29369299 184.27683464 -9.58959961 184.26177979 C-5.80893926 184.24222185 -2.02853535 184.20025052 1.75195312 184.16015625 C9.16789987 184.08481393 16.58373913 184.03454728 24 184 C24 183.67 24 183.34 24 183 C26.64 183 29.28 183 32 183 C32 182.34 32 181.68 32 181 C33.65 181 35.3 181 37 181 C37 180.01 37 179.02 37 178 C38.32 178 39.64 178 41 178 C41 177.34 41 176.68 41 176 C41.99 176 42.98 176 44 176 C44 175.34 44 174.68 44 174 C44.66 174 45.32 174 46 174 C46 173.34 46 172.68 46 172 C46.66 172 47.32 172 48 172 C48 170.35 48 168.7 48 167 C48.66 166.67 49.32 166.34 50 166 C50.65555119 163.47266765 50.65555119 163.47266765 51 161 C51.66 161 52.32 161 53 161 C52.61398797 151.76713481 52.61398797 151.76713481 50 143 C49.34 142.67 48.68 142.34 48 142 C48 140.68 48 139.36 48 138 C47.34 138 46.68 138 46 138 C46 137.34 46 136.68 46 136 C45.34 136 44.68 136 44 136 C42 134 42 134 41 131 C39.68 131 38.36 131 37 131 C37 130.34 37 129.68 37 129 C36.13375 128.814375 36.13375 128.814375 35.25 128.625 C32.97664233 127.99351176 31.0746471 127.11141809 29 126 C29 125.34 29 124.68 29 124 C27.35 124 25.7 124 24 124 C24 123.34 24 122.68 24 122 C22.02 122 20.04 122 18 122 C17.67 121.34 17.34 120.68 17 120 C14.97536745 119.34786708 14.97536745 119.34786708 13 119 C13 118.34 13 117.68 13 117 C10.69 117 8.38 117 6 117 C6 116.34 6 115.68 6 115 C4.35 115 2.7 115 1 115 C1 114.34 1 113.68 1 113 C-1.97 112.505 -1.97 112.505 -5 112 C-5 111.34 -5 110.68 -5 110 C-6.65 110 -8.3 110 -10 110 C-10 109.34 -10 108.68 -10 108 C-12.63904371 106.58622659 -15.07120629 105.62759865 -18 105 C-18 104.34 -18 103.68 -18 103 C-18.99 103 -19.98 103 -21 103 C-21 102.01 -21 101.02 -21 100 C-21.99 100 -22.98 100 -24 100 C-24 99.34 -24 98.68 -24 98 C-24.598125 97.731875 -25.19625 97.46375 -25.8125 97.1875 C-27.99847854 96.00082594 -29.41332594 94.90400887 -31 93 C-31 92.34 -31 91.68 -31 91 C-31.66 91 -32.32 91 -33 91 C-33 90.01 -33 89.02 -33 88 C-33.66 88 -34.32 88 -35 88 C-35.680625 86.5459375 -35.680625 86.5459375 -36.375 85.0625 C-37.65786221 81.92920418 -37.65786221 81.92920418 -40 81 C-40 79.35 -40 77.7 -40 76 C-40.66 76 -41.32 76 -42 76 C-42.1953125 73.94921875 -42.390625 71.8984375 -42.5859375 69.84765625 C-42.79089844 68.93306641 -42.79089844 68.93306641 -43 68 C-43.66 67.67 -44.32 67.34 -45 67 C-45 57.76 -45 48.52 -45 39 C-44.01 38.505 -44.01 38.505 -43 38 C-42.59270772 35.67843403 -42.25561323 33.3431213 -42 31 C-41.34 31 -40.68 31 -40 31 C-40.061875 30.071875 -40.12375 29.14375 -40.1875 28.1875 C-40 25 -40 25 -38.625 23.125 C-37 22 -37 22 -35 22 C-35 21.01 -35 20.02 -35 19 C-34.34 19 -33.68 19 -33 19 C-33 18.34 -33 17.68 -33 17 C-31.625 15.375 -31.625 15.375 -30 14 C-29.34 14 -28.68 14 -28 14 C-28 13.34 -28 12.68 -28 12 C-27.01 12 -26.02 12 -25 12 C-25 11.34 -25 10.68 -25 10 C-22.69723426 7.78252188 -21.47519908 7.03239994 -18.25 6.8125 C-17.13625 6.9053125 -17.13625 6.9053125 -16 7 C-16 6.34 -16 5.68 -16 5 C-15.030625 4.87625 -14.06125 4.7525 -13.0625 4.625 C-12.051875 4.41875 -11.04125 4.2125 -10 4 C-9.67 3.34 -9.34 2.68 -9 2 C-6.93359375 1.5859375 -6.93359375 1.5859375 -4.4375 1.375 C-3.61121094 1.30023438 -2.78492188 1.22546875 -1.93359375 1.1484375 C-0.97646484 1.07496094 -0.97646484 1.07496094 0 1 C0 0.67 0 0.34 0 0 Z " fill="#00FF6F" transform="translate(871,79)"/>
<path d="M0 0 C11.55 0 23.1 0 35 0 C35.495 0.99 35.495 0.99 36 2 C38.16467461 2.62669199 40.35864524 3.15427374 42.5625 3.625 C44.35880859 4.01558594 44.35880859 4.01558594 46.19140625 4.4140625 C47.11824219 4.60742188 48.04507812 4.80078125 49 5 C49 5.66 49 6.32 49 7 C50.65 7 52.3 7 54 7 C54 7.66 54 8.32 54 9 C55.0725 9.4125 56.145 9.825 57.25 10.25 C60.55072925 11.64748617 62.54357501 13.36811608 65 16 C66.485 16.495 66.485 16.495 68 17 C69.6875 18.4375 69.6875 18.4375 71 20 C71 20.66 71 21.32 71 22 C71.66 22 72.32 22 73 22 C78 27.35714286 78 27.35714286 78 31 C78.99 31 79.98 31 81 31 C81 31.99 81 32.98 81 34 C81.66 34 82.32 34 83 34 C83.12375 34.639375 83.2475 35.27875 83.375 35.9375 C83.58125 36.618125 83.7875 37.29875 84 38 C84.66 38.33 85.32 38.66 86 39 C86 40.32 86 41.64 86 43 C86.66 43 87.32 43 88 43 C88 44.65 88 46.3 88 48 C88.66 48 89.32 48 90 48 C90.12375 48.969375 90.2475 49.93875 90.375 50.9375 C90.58125 51.948125 90.7875 52.95875 91 54 C91.66 54.33 92.32 54.66 93 55 C93 58.63 93 62.26 93 66 C93.66 66 94.32 66 95 66 C95 73.92 95 81.84 95 90 C94.34 90 93.68 90 93 90 C93 93.96 93 97.92 93 102 C92.01 102.495 92.01 102.495 91 103 C90.34227572 106.02934491 90.34227572 106.02934491 90 109 C89.34 109 88.68 109 88 109 C88 110.65 88 112.3 88 114 C87.34 114 86.68 114 86 114 C85.67 115.65 85.34 117.3 85 119 C84.34 119 83.68 119 83 119 C83 119.99 83 120.98 83 122 C82.34 122 81.68 122 81 122 C81 123.32 81 124.64 81 126 C79.625 127.75 79.625 127.75 78 129 C77.34 129 76.68 129 76 129 C75.67 129.99 75.34 130.98 75 132 C74.67 132.66 74.34 133.32 74 134 C73.01 134 72.02 134 71 134 C71 134.66 71 135.32 71 136 C70.34 136 69.68 136 69 136 C68.67 136.99 68.34 137.98 68 139 C66.29296875 140.5703125 66.29296875 140.5703125 64.1875 142.125 C63.50042969 142.64320313 62.81335937 143.16140625 62.10546875 143.6953125 C60.03279755 144.97967647 58.38201668 145.56106659 56 146 C56 146.66 56 147.32 56 148 C52.6828589 149.4216319 49.55780196 150.39009109 46 151 C46 151.66 46 152.32 46 153 C44.865625 153.144375 43.73125 153.28875 42.5625 153.4375 C39.19222799 153.61171478 39.19222799 153.61171478 38 155 C35.81707226 155.23481693 33.62796826 155.41363323 31.4375 155.5625 C30.23996094 155.64628906 29.04242187 155.73007812 27.80859375 155.81640625 C26.88175781 155.87699219 25.95492188 155.93757812 25 156 C25 156.66 25 157.32 25 158 C20.05 158 15.1 158 10 158 C9.67 157.34 9.34 156.68 9 156 C6.1840151 155.53101037 6.1840151 155.53101037 2.9375 155.375 C1.83277344 155.30023438 0.72804688 155.22546875 -0.41015625 155.1484375 C-1.69212891 155.07496094 -1.69212891 155.07496094 -3 155 C-3 154.34 -3 153.68 -3 153 C-4.2375 153.04125 -5.475 153.0825 -6.75 153.125 C-10.02623953 153.125 -12.23767686 152.91237756 -15 151 C-15.99 150.01 -15.99 150.01 -17 149 C-19.06874034 148.3574765 -19.06874034 148.3574765 -21 148 C-21 147.34 -21 146.68 -21 146 C-21.99 146 -22.98 146 -24 146 C-24.33 145.34 -24.66 144.68 -25 144 C-25.94875 143.525625 -26.8975 143.05125 -27.875 142.5625 C-30.55349818 141.22325091 -32.18277369 140.3220114 -34 138 C-34 137.34 -34 136.68 -34 136 C-34.66 136 -35.32 136 -36 136 C-36 135.34 -36 134.68 -36 134 C-36.66 134 -37.32 134 -38 134 C-39.625 132.625 -39.625 132.625 -41 131 C-41 130.34 -41 129.68 -41 129 C-41.66 129 -42.32 129 -43 129 C-43.33 127.68 -43.66 126.36 -44 125 C-44.66 125 -45.32 125 -46 125 C-46 124.01 -46 123.02 -46 122 C-46.66 122 -47.32 122 -48 122 C-48.45375 120.865625 -48.9075 119.73125 -49.375 118.5625 C-50.57095806 114.95278308 -50.57095806 114.95278308 -53 114 C-53 111.69 -53 109.38 -53 107 C-53.66 107 -54.32 107 -55 107 C-55.12375 106.030625 -55.2475 105.06125 -55.375 104.0625 C-55.58125 103.051875 -55.7875 102.04125 -56 101 C-56.66 100.67 -57.32 100.34 -58 100 C-58.4140625 97.27734375 -58.4140625 97.27734375 -58.625 93.9375 C-58.73714844 92.28041016 -58.73714844 92.28041016 -58.8515625 90.58984375 C-58.90054687 89.73519531 -58.94953125 88.88054687 -59 88 C-59.33 88 -59.66 88 -60 88 C-60 81.73 -60 75.46 -60 69 C-59.34 69 -58.68 69 -58 69 C-58 64.71 -58 60.42 -58 56 C-57.01 55.505 -57.01 55.505 -56 55 C-55.59270772 52.67843403 -55.25561323 50.3431213 -55 48 C-54.34 48 -53.68 48 -53 48 C-53 46.35 -53 44.7 -53 43 C-52.34 43 -51.68 43 -51 43 C-50.87625 42.443125 -50.7525 41.88625 -50.625 41.3125 C-49.94023145 38.77885636 -49.00866237 36.42078968 -48 34 C-47.34 34 -46.68 34 -46 34 C-46 33.01 -46 32.02 -46 31 C-45.01 31 -44.02 31 -43 31 C-42.9175 30.443125 -42.835 29.88625 -42.75 29.3125 C-41.76104459 26.26322081 -40.15242534 24.34810037 -38 22 C-37.34 22 -36.68 22 -36 22 C-36 21.34 -36 20.68 -36 20 C-34.28515625 18.5625 -34.28515625 18.5625 -32.0625 17 C-29.01367363 14.95183196 -29.01367363 14.95183196 -27 12 C-24.66666667 11 -22.33333333 10 -20 9 C-19.67 8.34 -19.34 7.68 -19 7 C-17.35 7 -15.7 7 -14 7 C-14 6.34 -14 5.68 -14 5 C-12.02 5 -10.04 5 -8 5 C-8 4.34 -8 3.68 -8 3 C-6.865625 2.87625 -5.73125 2.7525 -4.5625 2.625 C-3.386875 2.41875 -2.21125 2.2125 -1 2 C-0.67 1.34 -0.34 0.68 0 0 Z M13 29 C12.67 29.99 12.34 30.98 12 32 C8.7 32 5.4 32 2 32 C2 32.66 2 33.32 2 34 C1.278125 33.938125 0.55625 33.87625 -0.1875 33.8125 C-3.56199315 34.03746621 -5.30593911 34.99869763 -8 37 C-8 37.66 -8 38.32 -8 39 C-8.556875 39.226875 -9.11375 39.45375 -9.6875 39.6875 C-12.66159588 41.37550036 -14.72008865 43.46676517 -17 46 C-17 46.66 -17 47.32 -17 48 C-17.66 48 -18.32 48 -19 48 C-19 48.99 -19 49.98 -19 51 C-19.66 51 -20.32 51 -21 51 C-21.33 52.65 -21.66 54.3 -22 56 C-22.66 56 -23.32 56 -24 56 C-24 58.31 -24 60.62 -24 63 C-24.66 63 -25.32 63 -26 63 C-26 73.23 -26 83.46 -26 94 C-25.34 94 -24.68 94 -24 94 C-24.061875 94.886875 -24.12375 95.77375 -24.1875 96.6875 C-23.97935526 100.36472369 -23.21793417 102.09962455 -21 105 C-20.34 105 -19.68 105 -19 105 C-19 106.32 -19 107.64 -19 109 C-18.34 109 -17.68 109 -17 109 C-17 109.99 -17 110.98 -17 112 C-16.34 112 -15.68 112 -15 112 C-14.67 112.99 -14.34 113.98 -14 115 C-13.34 115 -12.68 115 -12 115 C-12 115.66 -12 116.32 -12 117 C-11.01 117 -10.02 117 -9 117 C-9 117.66 -9 118.32 -9 119 C-8.05125 119.45375 -7.1025 119.9075 -6.125 120.375 C-3 122 -3 122 -1 124 C2.58343976 124.16677282 2.58343976 124.16677282 6 124 C6 124.66 6 125.32 6 126 C13.59 126 21.18 126 29 126 C29 125.34 29 124.68 29 124 C30.051875 124.061875 31.10375 124.12375 32.1875 124.1875 C36.16108064 123.992078 37.91244563 123.4326186 41 121 C41 120.34 41 119.68 41 119 C42.32 119 43.64 119 45 119 C45 118.34 45 117.68 45 117 C45.66 117 46.32 117 47 117 C47 116.34 47 115.68 47 115 C47.99 114.67 48.98 114.34 50 114 C50 113.34 50 112.68 50 112 C50.66 112 51.32 112 52 112 C52 111.34 52 110.68 52 110 C52.66 110 53.32 110 54 110 C54 108.68 54 107.36 54 106 C54.99 105.67 55.98 105.34 57 105 C57 103.68 57 102.36 57 101 C57.66 101 58.32 101 59 101 C59 99.02 59 97.04 59 95 C59.66 95 60.32 95 61 95 C61 83.78 61 72.56 61 61 C60.67 61 60.34 61 60 61 C59.505 58.03 59.505 58.03 59 55 C58.34 55 57.68 55 57 55 C56.9175 54.278125 56.835 53.55625 56.75 52.8125 C55.83749583 49.39060935 54.41828071 47.56053252 52 45 C51.01 44.67 50.02 44.34 49 44 C49 43.01 49 42.02 49 41 C48.01 41 47.02 41 46 41 C46 40.34 46 39.68 46 39 C43.02149733 36.16741821 40.1783541 34.12535682 36.0625 33.6875 C35.381875 33.790625 34.70125 33.89375 34 34 C34 33.34 34 32.68 34 32 C30.37 32 26.74 32 23 32 C22.505 30.515 22.505 30.515 22 29 C19.03 29 16.06 29 13 29 Z " fill="#00FF6E" transform="translate(1198,143)"/>
<path d="M0 0 C11.22 0 22.44 0 34 0 C34.495 0.99 34.495 0.99 35 2 C37.32854865 2.36526253 39.66298962 2.69350684 42 3 C44.01416562 3.62256028 46.02015519 4.27566653 48 5 C48 5.66 48 6.32 48 7 C49.65 7 51.3 7 53 7 C53.495 7.99 53.495 7.99 54 9 C56.02463255 9.65213292 56.02463255 9.65213292 58 10 C58 10.66 58 11.32 58 12 C58.99 12 59.98 12 61 12 C61 12.66 61 13.32 61 14 C62.32 14.33 63.64 14.66 65 15 C65 15.66 65 16.32 65 17 C65.99 17 66.98 17 68 17 C68.226875 17.78375 68.45375 18.5675 68.6875 19.375 C69.78125 22.21875 69.78125 22.21875 72.625 23.3125 C73.800625 23.6528125 73.800625 23.6528125 75 24 C75 24.99 75 25.98 75 27 C75.66 27 76.32 27 77 27 C78.625 28.25 78.625 28.25 80 30 C80 31.32 80 32.64 80 34 C80.66 34 81.32 34 82 34 C83.625 35.25 83.625 35.25 85 37 C85 38.32 85 39.64 85 41 C85.66 41 86.32 41 87 41 C87 42.65 87 44.3 87 46 C87.66 46 88.32 46 89 46 C89.12375 46.969375 89.2475 47.93875 89.375 48.9375 C89.58125 49.948125 89.7875 50.95875 90 52 C90.66 52.33 91.32 52.66 92 53 C92 55.97 92 58.94 92 62 C92.66 62 93.32 62 94 62 C94 72.89 94 83.78 94 95 C93.34 95 92.68 95 92 95 C92 97.97 92 100.94 92 104 C91.01 104.495 91.01 104.495 90 105 C89.34444881 107.52733235 89.34444881 107.52733235 89 110 C88.34 110 87.68 110 87 110 C87.0825 110.9075 87.165 111.815 87.25 112.75 C86.94332815 116.73673402 85.86936476 117.39148658 83 120 C82.2127322 122.1381966 82.2127322 122.1381966 82 124 C81.34 124 80.68 124 80 124 C80 124.99 80 125.98 80 127 C79.34 127 78.68 127 78 127 C77.7525 127.556875 77.505 128.11375 77.25 128.6875 C74.9474923 132.94713924 72.10852051 136.39793701 68 139 C67.34 139 66.68 139 66 139 C66 139.66 66 140.32 66 141 C65.01 141 64.02 141 63 141 C63 141.66 63 142.32 63 143 C61.75 144.625 61.75 144.625 60 146 C58.68 146 57.36 146 56 146 C56 146.66 56 147.32 56 148 C54.35 148 52.7 148 51 148 C50.67 148.99 50.34 149.98 50 151 C47.9375 151.6875 47.9375 151.6875 46 152 C46 152.33 46 152.66 46 153 C43.36 153 40.72 153 38 153 C38 153.66 38 154.32 38 155 C37.21753906 155.04898438 36.43507813 155.09796875 35.62890625 155.1484375 C34.11103516 155.26058594 34.11103516 155.26058594 32.5625 155.375 C31.04849609 155.47941406 31.04849609 155.47941406 29.50390625 155.5859375 C28.67761719 155.72257813 27.85132813 155.85921875 27 156 C26.67 156.66 26.34 157.32 26 158 C20.72 158 15.44 158 10 158 C9.67 157.34 9.34 156.68 9 156 C6.1840151 155.53101037 6.1840151 155.53101037 2.9375 155.375 C1.83277344 155.30023438 0.72804688 155.22546875 -0.41015625 155.1484375 C-1.69212891 155.07496094 -1.69212891 155.07496094 -3 155 C-3 154.34 -3 153.68 -3 153 C-4.2375 153.04125 -5.475 153.0825 -6.75 153.125 C-9.99046026 153.11926467 -12.33349851 153.02654113 -15 151 C-15.33 150.01 -15.66 149.02 -16 148 C-17.65 148 -19.3 148 -21 148 C-21 147.34 -21 146.68 -21 146 C-22.32 146 -23.64 146 -25 146 C-25 145.01 -25 144.02 -25 143 C-25.99 143 -26.98 143 -28 143 C-28 142.34 -28 141.68 -28 141 C-29.32 141 -30.64 141 -32 141 C-33.81640625 139.3203125 -33.81640625 139.3203125 -35.5625 137.125 C-37.6768271 134.49739528 -39.15146857 132.89902095 -42 131 C-42 130.01 -42 129.02 -42 128 C-42.66 128 -43.32 128 -44 128 C-44 126.68 -44 125.36 -44 124 C-44.99 124 -45.98 124 -47 124 C-47 123.01 -47 122.02 -47 121 C-47.66 121 -48.32 121 -49 121 C-49.99 118.03 -50.98 115.06 -52 112 C-52.66 112 -53.32 112 -54 112 C-54 109.69 -54 107.38 -54 105 C-54.66 105 -55.32 105 -56 105 C-56.12375 103.88625 -56.2475 102.7725 -56.375 101.625 C-56.6465813 97.96896323 -56.6465813 97.96896323 -59 96 C-59.19973733 93.29864677 -59.27981573 90.70202789 -59.265625 88 C-59.26753845 87.20851563 -59.2694519 86.41703125 -59.27142334 85.6015625 C-59.27278518 83.9270801 -59.26908882 82.25258715 -59.26074219 80.578125 C-59.2500424 78.01017619 -59.26063725 75.44292697 -59.2734375 72.875 C-59.2721159 71.24999845 -59.26955351 69.62499734 -59.265625 68 C-59.26967346 67.22914063 -59.27372192 66.45828125 -59.27789307 65.6640625 C-59.22992132 60.22992132 -59.22992132 60.22992132 -57 58 C-56.59952556 55.67724823 -56.2602896 53.34260643 -56 51 C-55.34 51 -54.68 51 -54 51 C-54 48.69 -54 46.38 -54 44 C-53.01 43.505 -53.01 43.505 -52 43 C-51.34786708 40.97536745 -51.34786708 40.97536745 -51 39 C-50.34 39 -49.68 39 -49 39 C-49 38.01 -49 37.02 -49 36 C-48.34 36 -47.68 36 -47 36 C-46.87625 35.401875 -46.7525 34.80375 -46.625 34.1875 C-46 32 -46 32 -44 29 C-43.34 29 -42.68 29 -42 29 C-42 28.01 -42 27.02 -42 26 C-41.34 26 -40.68 26 -40 26 C-40 25.34 -40 24.68 -40 24 C-38.625 22.375 -38.625 22.375 -37 21 C-36.34 21 -35.68 21 -35 21 C-35 20.34 -35 19.68 -35 19 C-34.34 19 -33.68 19 -33 19 C-33 18.34 -33 17.68 -33 17 C-32.01 17 -31.02 17 -30 17 C-30 16.34 -30 15.68 -30 15 C-28.75 13.375 -28.75 13.375 -27 12 C-25.68 12 -24.36 12 -23 12 C-23 11.34 -23 10.68 -23 10 C-22.01 9.67 -21.02 9.34 -20 9 C-19.67 8.34 -19.34 7.68 -19 7 C-17.68 7 -16.36 7 -15 7 C-15 6.34 -15 5.68 -15 5 C-12.69 5 -10.38 5 -8 5 C-8 4.34 -8 3.68 -8 3 C-6.865625 2.87625 -5.73125 2.7525 -4.5625 2.625 C-3.386875 2.41875 -2.21125 2.2125 -1 2 C-0.67 1.34 -0.34 0.68 0 0 Z M12 30 C12 30.66 12 31.32 12 32 C8.37 32 4.74 32 1 32 C1 32.33 1 32.66 1 33 C-0.65 33.33 -2.3 33.66 -4 34 C-4 34.66 -4 35.32 -4 36 C-5.32 36.33 -6.64 36.66 -8 37 C-8 37.66 -8 38.32 -8 39 C-8.99 39 -9.98 39 -11 39 C-11 39.66 -11 40.32 -11 41 C-11.66 41 -12.32 41 -13 41 C-13 41.66 -13 42.32 -13 43 C-13.5775 43.185625 -14.155 43.37125 -14.75 43.5625 C-18.10427843 45.70551122 -19.17907996 48.48822563 -21 52 C-21.33 52 -21.66 52 -22 52 C-22 53.65 -22 55.3 -22 57 C-22.99 57.33 -23.98 57.66 -25 58 C-25 60.64 -25 63.28 -25 66 C-25.66 66 -26.32 66 -27 66 C-27 74.25 -27 82.5 -27 91 C-26.34 91 -25.68 91 -25 91 C-25 93.31 -25 95.62 -25 98 C-24.01 98.33 -23.02 98.66 -22 99 C-22 100.65 -22 102.3 -22 104 C-21.34 104 -20.68 104 -20 104 C-20 105.32 -20 106.64 -20 108 C-19.34 108 -18.68 108 -18 108 C-17.67 108.99 -17.34 109.98 -17 111 C-16.34 111 -15.68 111 -15 111 C-15 111.99 -15 112.98 -15 114 C-14.34 114 -13.68 114 -13 114 C-13 114.66 -13 115.32 -13 116 C-11.68 116.33 -10.36 116.66 -9 117 C-9 117.66 -9 118.32 -9 119 C-8.01 119 -7.02 119 -6 119 C-6 119.66 -6 120.32 -6 121 C-4.68 121 -3.36 121 -2 121 C-1.67 121.99 -1.34 122.98 -1 124 C1.31 124 3.62 124 6 124 C6 124.66 6 125.32 6 126 C13.59 126 21.18 126 29 126 C29 125.34 29 124.68 29 124 C30.051875 124.061875 31.10375 124.12375 32.1875 124.1875 C36.16108064 123.992078 37.91244563 123.4326186 41 121 C41 120.34 41 119.68 41 119 C41.99 119 42.98 119 44 119 C44 118.34 44 117.68 44 117 C44.8971875 116.5978125 44.8971875 116.5978125 45.8125 116.1875 C47.99847854 115.00082594 49.41332594 113.90400887 51 112 C51 111.34 51 110.68 51 110 C51.66 110 52.32 110 53 110 C53 109.01 53 108.02 53 107 C53.99 106.67 54.98 106.34 56 106 C56 105.01 56 104.02 56 103 C56.66 103 57.32 103 58 103 C58.33 101.35 58.66 99.7 59 98 C59.33 98 59.66 98 60 98 C60 94.7 60 91.4 60 88 C60.99 87.67 61.98 87.34 63 87 C63 81.39 63 75.78 63 70 C61.515 69.505 61.515 69.505 60 69 C60 65.7 60 62.4 60 59 C59.34 59 58.68 59 58 59 C58.0928125 57.88625 58.0928125 57.88625 58.1875 56.75 C57.96760006 53.52480092 57.21747812 52.30276574 55 50 C54.34 50 53.68 50 53 50 C53 48.68 53 47.36 53 46 C52.34 46 51.68 46 51 46 C51 45.01 51 44.02 51 43 C50.34 43 49.68 43 49 43 C49 42.34 49 41.68 49 41 C48.01 41 47.02 41 46 41 C46 40.34 46 39.68 46 39 C45.01 39 44.02 39 43 39 C42.505 37.515 42.505 37.515 42 36 C41.01 36 40.02 36 39 36 C39 35.34 39 34.68 39 34 C37.35 33.67 35.7 33.34 34 33 C34 32.67 34 32.34 34 32 C30.37 32 26.74 32 23 32 C23 31.34 23 30.68 23 30 C19.601015 28.3005075 15.398985 28.3005075 12 30 Z " fill="#FFFFFF" transform="translate(709,143)"/>
<path d="M0 0 C1.29349365 0.00523682 2.5869873 0.01047363 3.91967773 0.01586914 C4.9496714 0.01799156 4.9496714 0.01799156 6.00047302 0.02015686 C8.20144949 0.0257706 10.40232557 0.03832532 12.60327148 0.05102539 C14.09220231 0.05603863 15.58113473 0.06060184 17.07006836 0.06469727 C20.72700223 0.07574446 24.38387707 0.09301826 28.04077148 0.11352539 C28.05107895 1.3641124 28.06138641 2.6146994 28.07200623 3.90318298 C28.1695585 15.66112226 28.27227484 27.41900645 28.38011074 39.17685604 C28.43538891 45.22237722 28.48881659 51.26790319 28.53808594 57.31347656 C28.58565748 63.14251128 28.6379974 68.97148509 28.69371223 74.80044746 C28.71416857 77.02968399 28.73287609 79.25893725 28.7498455 81.48820305 C28.77381719 84.59896803 28.80388127 87.70961668 28.83544922 90.8203125 C28.84408241 92.21753036 28.84408241 92.21753036 28.85289001 93.64297485 C28.49119415 97.70124392 28.49119415 97.70124392 30.04077148 101.11352539 C30.08157931 103.11310903 30.08331505 105.11397793 30.04077148 107.11352539 C31.03077148 107.11352539 32.02077148 107.11352539 33.04077148 107.11352539 C33.04077148 108.43352539 33.04077148 109.75352539 33.04077148 111.11352539 C33.70077148 111.11352539 34.36077148 111.11352539 35.04077148 111.11352539 C35.37077148 111.77352539 35.70077148 112.43352539 36.04077148 113.11352539 C37.03077148 113.44352539 38.02077148 113.77352539 39.04077148 114.11352539 C39.04077148 114.77352539 39.04077148 115.43352539 39.04077148 116.11352539 C40.36077148 116.11352539 41.68077148 116.11352539 43.04077148 116.11352539 C43.04077148 116.77352539 43.04077148 117.43352539 43.04077148 118.11352539 C43.98952148 118.07227539 44.93827148 118.03102539 45.91577148 117.98852539 C49.04077148 118.11352539 49.04077148 118.11352539 51.04077148 120.11352539 C53.97737358 120.35946629 56.82639261 120.48727791 59.76733398 120.52758789 C60.63014984 120.54695404 61.4929657 120.56632019 62.38192749 120.58627319 C65.14310765 120.64614744 67.90432932 120.69248537 70.66577148 120.73852539 C72.53558153 120.77669798 74.40537386 120.81574929 76.27514648 120.85571289 C80.86354458 120.95185531 85.45202499 121.03585705 90.04077148 121.11352539 C89.71077148 120.45352539 89.38077148 119.79352539 89.04077148 119.11352539 C88.94613268 117.54463507 88.91447131 115.97175115 88.91378784 114.40000916 C88.90955811 112.90874763 88.90955811 112.90874763 88.90524292 111.38735962 C88.90827927 109.7454213 88.90827927 109.7454213 88.91137695 108.0703125 C88.90874847 106.34590187 88.90874847 106.34590187 88.90606689 104.58665466 C88.90165106 100.77137765 88.90458525 96.95614666 88.90795898 93.14086914 C88.90728591 90.50053397 88.90631586 87.86019885 88.90505981 85.21986389 C88.90323933 79.6807505 88.90564152 74.14165043 88.91040039 68.60253906 C88.91584546 62.19050211 88.91407809 55.77849693 88.90857399 49.36646074 C88.9034975 43.20697032 88.90402415 37.04749404 88.90695572 30.8880024 C88.9076252 28.26241616 88.90679584 25.63682912 88.90447617 23.01124382 C88.90195144 19.34992157 88.90578757 15.68866135 88.91137695 12.02734375 C88.90935272 10.93069397 88.90732849 9.83404419 88.90524292 8.7041626 C88.90806274 7.71280807 88.91088257 6.72145355 88.91378784 5.70005798 C88.91435338 4.40007826 88.91435338 4.40007826 88.91493034 3.07383633 C89.04077148 1.11352539 89.04077148 1.11352539 90.04077148 0.11352539 C100.27077148 0.11352539 110.50077148 0.11352539 121.04077148 0.11352539 C121.04077148 49.61352539 121.04077148 99.11352539 121.04077148 150.11352539 C93.98077148 150.11352539 66.92077148 150.11352539 39.04077148 150.11352539 C39.04077148 149.78352539 39.04077148 149.45352539 39.04077148 149.11352539 C37.12264648 148.92790039 37.12264648 148.92790039 35.16577148 148.73852539 C31.29077148 148.36352539 31.29077148 148.36352539 29.04077148 146.11352539 C27.05255835 145.71588276 25.05132809 145.3757719 23.04077148 145.11352539 C23.04077148 144.45352539 23.04077148 143.79352539 23.04077148 143.11352539 C21.39077148 143.11352539 19.74077148 143.11352539 18.04077148 143.11352539 C18.04077148 142.45352539 18.04077148 141.79352539 18.04077148 141.11352539 C17.05077148 140.78352539 16.06077148 140.45352539 15.04077148 140.11352539 C15.04077148 139.45352539 15.04077148 138.79352539 15.04077148 138.11352539 C13.72077148 138.11352539 12.40077148 138.11352539 11.04077148 138.11352539 C8.29077148 135.80102539 8.29077148 135.80102539 6.04077148 133.11352539 C6.04077148 132.12352539 6.04077148 131.13352539 6.04077148 130.11352539 C5.38077148 130.11352539 4.72077148 130.11352539 4.04077148 130.11352539 C4.04077148 128.79352539 4.04077148 127.47352539 4.04077148 126.11352539 C3.05077148 126.11352539 2.06077148 126.11352539 1.04077148 126.11352539 C1.04077148 124.46352539 1.04077148 122.81352539 1.04077148 121.11352539 C0.38077148 121.11352539 -0.27922852 121.11352539 -0.95922852 121.11352539 C-1.00821289 120.48704102 -1.05719727 119.86055664 -1.10766602 119.21508789 C-1.18243164 118.39782227 -1.25719727 117.58055664 -1.33422852 116.73852539 C-1.40383789 115.92641602 -1.47344727 115.11430664 -1.54516602 114.27758789 C-1.7881544 111.91018348 -1.7881544 111.91018348 -3.95922852 110.11352539 C-4.20811749 108.16792965 -4.20811749 108.16792965 -4.20646667 105.74168396 C-4.21066116 104.823237 -4.21485565 103.90479004 -4.21917725 102.95851135 C-4.21355774 101.94804245 -4.20793823 100.93757355 -4.20214844 99.89648438 C-4.20404678 98.83465942 -4.20594513 97.77283447 -4.207901 96.67883301 C-4.21161725 93.15568752 -4.20089312 89.63274642 -4.18969727 86.10961914 C-4.18850592 83.67106653 -4.18805221 81.23251346 -4.18830872 78.79396057 C-4.18674242 73.67852921 -4.17844108 68.5631677 -4.16503906 63.44775391 C-4.14804006 56.87432951 -4.14422489 50.30098191 -4.14498425 43.72753811 C-4.14471298 38.69113933 -4.13923896 33.6547575 -4.1319828 28.61836433 C-4.12878964 26.1937377 -4.12682723 23.76910914 -4.1260891 21.34448051 C-4.12393288 17.96334398 -4.11520453 14.58229068 -4.10449219 11.20117188 C-4.10494537 10.18867874 -4.10539856 9.17618561 -4.10586548 8.13301086 C-4.10160049 7.21738373 -4.09733551 6.30175659 -4.09294128 5.35838318 C-4.09126544 4.55809913 -4.0895896 3.75781507 -4.08786297 2.93327999 C-3.86741388 -0.1853498 -3.16970286 0.12159985 0 0 Z " fill="#FFFFFF" transform="translate(389.959228515625,145.886474609375)"/>
<path d="M0 0 C24.42 0 48.84 0 74 0 C74.495 0.495 74.495 0.495 75 1 C77.18292774 1.23481693 79.37203174 1.41363323 81.5625 1.5625 C82.76003906 1.64628906 83.95757813 1.73007813 85.19140625 1.81640625 C86.11824219 1.87699219 87.04507812 1.93757812 88 2 C88 2.66 88 3.32 88 4 C90.31 4 92.62 4 95 4 C95.495 4.99 95.495 4.99 96 6 C98.52733235 6.65555119 98.52733235 6.65555119 101 7 C101 7.66 101 8.32 101 9 C102.32 9 103.64 9 105 9 C106.9375 10.75 106.9375 10.75 109 13 C110.66270287 14.33827304 112.32916181 15.67189785 114 17 C115.8125 18.5 115.8125 18.5 117 20 C117 21.32 117 22.64 117 24 C117.66 24 118.32 24 119 24 C119 25.32 119 26.64 119 28 C120.485 28.495 120.485 28.495 122 29 C122.495 31.97 122.495 31.97 123 35 C123.33 35 123.66 35 124 35 C124.06058594 36.14339844 124.12117188 37.28679687 124.18359375 38.46484375 C124.26798428 39.95574305 124.35263302 41.44662775 124.4375 42.9375 C124.47681641 43.69224609 124.51613281 44.44699219 124.55664062 45.22460938 C124.44038024 48.91944187 124.44038024 48.91944187 126 52 C126.09530981 55.04402422 126.12551639 58.06531708 126.11352539 61.10961914 C126.11367142 62.06561508 126.11381744 63.02161102 126.1139679 64.00657654 C126.11326835 67.18279245 126.10547403 70.35895052 126.09765625 73.53515625 C126.09579222 75.73091093 126.09436825 77.92666602 126.09336853 80.12242126 C126.08954219 85.91420633 126.07971091 91.7059665 126.06866455 97.4977417 C126.05845293 103.40278791 126.05387145 109.30783813 126.04882812 115.21289062 C126.03808874 126.80860648 126.02049101 138.40429728 126 150 C115.77 150 105.54 150 95 150 C94.98541748 147.33647461 94.97083496 144.67294922 94.95581055 141.92871094 C94.9052927 133.09173202 94.83866795 124.25492614 94.76428509 115.41811752 C94.71971017 110.06456786 94.6804261 104.71109204 94.65356445 99.35742188 C94.62740247 94.18309559 94.58691018 89.00905547 94.53681374 83.83490753 C94.52023179 81.8687727 94.50866387 79.90258847 94.50238609 77.93639374 C94.46589121 67.54936242 94.35424845 57.9412582 91 48 C90.67 48 90.34 48 90 48 C90 46.02 90 44.04 90 42 C89.34 42 88.68 42 88 42 C87.360625 41.195625 86.72125 40.39125 86.0625 39.5625 C84.18964068 36.76279268 84.18964068 36.76279268 81 36 C80.67 35.34 80.34 34.68 80 34 C77.97536745 33.34786708 77.97536745 33.34786708 76 33 C76 32.34 76 31.68 76 31 C61.15 31 46.3 31 31 31 C31 70.27 31 109.54 31 150 C20.77 150 10.54 150 0 150 C0 100.5 0 51 0 0 Z " fill="#00FF6F" transform="translate(986,146)"/>
<path d="M0 0 C1.02996094 -0.00128906 2.05992187 -0.00257812 3.12109375 -0.00390625 C4.74724609 0.00189453 4.74724609 0.00189453 6.40625 0.0078125 C7.49035156 0.00394531 8.57445312 0.00007812 9.69140625 -0.00390625 C10.72136719 -0.00261719 11.75132812 -0.00132813 12.8125 0 C14.24045898 0.00169189 14.24045898 0.00169189 15.69726562 0.00341797 C17.90625 0.1328125 17.90625 0.1328125 18.90625 1.1328125 C19.01070557 3.05498328 19.04480137 4.98101069 19.05151367 6.90600586 C19.05789352 8.14076157 19.06427338 9.37551727 19.07084656 10.64768982 C19.07237512 12.00601157 19.07348914 13.36433384 19.07421875 14.72265625 C19.0774297 16.10649145 19.08079365 17.4903263 19.08430481 18.87416077 C19.09030224 21.77866401 19.09214409 24.68313748 19.09155273 27.58764648 C19.09145109 31.31483396 19.10510272 35.04183103 19.12232494 38.76897335 C19.1334278 41.62822858 19.13547247 44.48743753 19.13494301 47.34671211 C19.13612574 48.72107156 19.14056388 50.09543211 19.14827538 51.46977043 C19.15803998 53.38989702 19.15394215 55.31007912 19.14916992 57.23022461 C19.15059494 58.32419052 19.15201996 59.41815643 19.15348816 60.54527283 C18.90625 63.1328125 18.90625 63.1328125 16.90625 65.1328125 C14.21785615 65.40273156 11.61483064 65.22018607 8.90625 65.1328125 C8.90625 65.7928125 8.90625 66.4528125 8.90625 67.1328125 C8.24625 67.1328125 7.58625 67.1328125 6.90625 67.1328125 C6.90625 67.7928125 6.90625 68.4528125 6.90625 69.1328125 C5.91625 69.1328125 4.92625 69.1328125 3.90625 69.1328125 C3.90625 69.7928125 3.90625 70.4528125 3.90625 71.1328125 C3.24625 71.1328125 2.58625 71.1328125 1.90625 71.1328125 C1.90625 72.1228125 1.90625 73.1128125 1.90625 74.1328125 C0.91625 74.1328125 -0.07375 74.1328125 -1.09375 74.1328125 C-1.09375 74.7928125 -1.09375 75.4528125 -1.09375 76.1328125 C-1.75375 76.1328125 -2.41375 76.1328125 -3.09375 76.1328125 C-3.42375 77.1228125 -3.75375 78.1128125 -4.09375 79.1328125 C-4.75375 79.1328125 -5.41375 79.1328125 -6.09375 79.1328125 C-6.09375 79.7928125 -6.09375 80.4528125 -6.09375 81.1328125 C-9.55528846 84.1328125 -9.55528846 84.1328125 -12.09375 84.1328125 C-12.09375 84.7928125 -12.09375 85.4528125 -12.09375 86.1328125 C-13.08375 86.1328125 -14.07375 86.1328125 -15.09375 86.1328125 C-15.09375 86.7928125 -15.09375 87.4528125 -15.09375 88.1328125 C-15.75375 88.1328125 -16.41375 88.1328125 -17.09375 88.1328125 C-17.09375 88.7928125 -17.09375 89.4528125 -17.09375 90.1328125 C-18.46875 91.7578125 -18.46875 91.7578125 -20.09375 93.1328125 C-20.75375 93.1328125 -21.41375 93.1328125 -22.09375 93.1328125 C-22.09375 93.7928125 -22.09375 94.4528125 -22.09375 95.1328125 C-23.73828125 96.82421875 -23.73828125 96.82421875 -25.90625 98.6953125 C-26.61394531 99.31535156 -27.32164062 99.93539062 -28.05078125 100.57421875 C-30.09375 102.1328125 -30.09375 102.1328125 -33.09375 103.1328125 C-33.09375 103.7928125 -33.09375 104.4528125 -33.09375 105.1328125 C-34.08375 105.1328125 -35.07375 105.1328125 -36.09375 105.1328125 C-36.09375 105.7928125 -36.09375 106.4528125 -36.09375 107.1328125 C-37.7734375 108.859375 -37.7734375 108.859375 -39.96875 110.7578125 C-40.68804687 111.38945313 -41.40734375 112.02109375 -42.1484375 112.671875 C-44.09375 114.1328125 -44.09375 114.1328125 -46.09375 114.1328125 C-46.361875 114.7721875 -46.63 115.4115625 -46.90625 116.0703125 C-48.09375 118.1328125 -48.09375 118.1328125 -51.09375 119.1328125 C-51.09375 119.7928125 -51.09375 120.4528125 -51.09375 121.1328125 C-52.40625 122.7578125 -52.40625 122.7578125 -54.09375 124.1328125 C-55.08375 124.1328125 -56.07375 124.1328125 -57.09375 124.1328125 C-57.09375 124.7928125 -57.09375 125.4528125 -57.09375 126.1328125 C-58.46875 127.7578125 -58.46875 127.7578125 -60.09375 129.1328125 C-60.75375 129.1328125 -61.41375 129.1328125 -62.09375 129.1328125 C-62.09375 129.7928125 -62.09375 130.4528125 -62.09375 131.1328125 C-63.08375 131.1328125 -64.07375 131.1328125 -65.09375 131.1328125 C-65.09375 131.7928125 -65.09375 132.4528125 -65.09375 133.1328125 C-65.75375 133.1328125 -66.41375 133.1328125 -67.09375 133.1328125 C-67.09375 134.1228125 -67.09375 135.1128125 -67.09375 136.1328125 C-68.08375 136.1328125 -69.07375 136.1328125 -70.09375 136.1328125 C-70.09375 136.7928125 -70.09375 137.4528125 -70.09375 138.1328125 C-70.75375 138.1328125 -71.41375 138.1328125 -72.09375 138.1328125 C-72.09375 138.7928125 -72.09375 139.4528125 -72.09375 140.1328125 C-73.5546875 141.640625 -73.5546875 141.640625 -75.46875 143.2578125 C-76.09523437 143.79664063 -76.72171875 144.33546875 -77.3671875 144.890625 C-79.09375 146.1328125 -79.09375 146.1328125 -81.09375 146.1328125 C-81.09375 146.7928125 -81.09375 147.4528125 -81.09375 148.1328125 C-82.08375 148.1328125 -83.07375 148.1328125 -84.09375 148.1328125 C-84.09375 148.7928125 -84.09375 149.4528125 -84.09375 150.1328125 C-84.75375 150.1328125 -85.41375 150.1328125 -86.09375 150.1328125 C-86.09375 150.7928125 -86.09375 151.4528125 -86.09375 152.1328125 C-87.06489746 152.75216675 -87.06489746 152.75216675 -88.05566406 153.3840332 C-90.35771036 154.99579934 -90.35771036 154.99579934 -90.63964844 157.86010742 C-90.6605957 158.93365479 -90.68154297 160.00720215 -90.703125 161.11328125 C-90.73535156 162.27666016 -90.76757812 163.44003906 -90.80078125 164.63867188 C-90.81496094 165.85361328 -90.82914063 167.06855469 -90.84375 168.3203125 C-90.87339844 169.54685547 -90.90304688 170.77339844 -90.93359375 172.03710938 C-91.00437899 175.06907703 -91.05703413 178.10027183 -91.09375 181.1328125 C-91.75375 181.1328125 -92.41375 181.1328125 -93.09375 181.1328125 C-93.09375 202.5828125 -93.09375 224.0328125 -93.09375 246.1328125 C-93.42375 246.1328125 -93.75375 246.1328125 -94.09375 246.1328125 C-94.13133423 247.65418823 -94.13133423 247.65418823 -94.16967773 249.20629883 C-94.26384645 252.96912277 -94.36404405 256.73176619 -94.46606445 260.49438477 C-94.50937749 262.12292254 -94.55105518 263.75150466 -94.59106445 265.38012695 C-94.64885503 267.72100185 -94.71252398 270.06165426 -94.77734375 272.40234375 C-94.80241249 273.49468071 -94.80241249 273.49468071 -94.82798767 274.60908508 C-94.91842238 277.69448189 -95.11098993 280.18453228 -96.09375 283.1328125 C-104.01375 283.1328125 -111.93375 283.1328125 -120.09375 283.1328125 C-120.09375 272.5728125 -120.09375 262.0128125 -120.09375 251.1328125 C-119.76375 251.1328125 -119.43375 251.1328125 -119.09375 251.1328125 C-119.05949669 249.97436325 -119.05949669 249.97436325 -119.02455139 248.79251099 C-118.80878271 241.52320842 -118.58854672 234.25406159 -118.36325932 226.98504829 C-118.24758846 223.24775145 -118.13366116 219.51041822 -118.02368164 215.77294922 C-117.91753169 212.167783 -117.80685001 208.56278211 -117.69299126 204.95785141 C-117.65030069 203.58075773 -117.60925832 202.20361197 -117.5698719 200.82641983 C-117.51453502 198.90124037 -117.45285558 196.97624636 -117.39086914 195.05126953 C-117.35755997 193.95428741 -117.32425079 192.8573053 -117.28993225 191.7270813 C-117.09375 189.1328125 -117.09375 189.1328125 -116.09375 187.1328125 C-116.02424459 185.59257254 -116.00922643 184.04946262 -116.03125 182.5078125 C-116.04027344 181.69054687 -116.04929687 180.87328125 -116.05859375 180.03125 C-116.07019531 179.40476563 -116.08179687 178.77828125 -116.09375 178.1328125 C-116.42375 179.1228125 -116.75375 180.1128125 -117.09375 181.1328125 C-118.08375 181.1328125 -119.07375 181.1328125 -120.09375 181.1328125 C-120.09375 181.7928125 -120.09375 182.4528125 -120.09375 183.1328125 C-124.84375 182.2578125 -124.84375 182.2578125 -127.09375 181.1328125 C-127.09375 180.1428125 -127.09375 179.1528125 -127.09375 178.1328125 C-127.75375 178.1328125 -128.41375 178.1328125 -129.09375 178.1328125 C-129.09375 177.4728125 -129.09375 176.8128125 -129.09375 176.1328125 C-130.08375 175.8028125 -131.07375 175.4728125 -132.09375 175.1328125 C-132.09375 174.4728125 -132.09375 173.8128125 -132.09375 173.1328125 C-132.75375 173.1328125 -133.41375 173.1328125 -134.09375 173.1328125 C-134.09375 172.4728125 -134.09375 171.8128125 -134.09375 171.1328125 C-134.75375 171.1328125 -135.41375 171.1328125 -136.09375 171.1328125 C-136.78125 167.8203125 -136.78125 167.8203125 -137.09375 164.1328125 C-135.78125 162.1953125 -135.78125 162.1953125 -134.09375 161.1328125 C-133.43375 161.1328125 -132.77375 161.1328125 -132.09375 161.1328125 C-132.09375 160.4728125 -132.09375 159.8128125 -132.09375 159.1328125 C-130.8871875 158.730625 -130.8871875 158.730625 -129.65625 158.3203125 C-128.3878125 157.7325 -128.3878125 157.7325 -127.09375 157.1328125 C-126.76375 156.1428125 -126.43375 155.1528125 -126.09375 154.1328125 C-124.03125 152.9453125 -124.03125 152.9453125 -122.09375 152.1328125 C-122.09375 151.4728125 -122.09375 150.8128125 -122.09375 150.1328125 C-120.44921875 148.44140625 -120.44921875 148.44140625 -118.28125 146.5703125 C-117.57355469 145.95027344 -116.86585937 145.33023438 -116.13671875 144.69140625 C-114.09375 143.1328125 -114.09375 143.1328125 -111.09375 142.1328125 C-111.09375 141.4728125 -111.09375 140.8128125 -111.09375 140.1328125 C-110.10375 140.1328125 -109.11375 140.1328125 -108.09375 140.1328125 C-108.09375 139.4728125 -108.09375 138.8128125 -108.09375 138.1328125 C-106.4140625 136.40625 -106.4140625 136.40625 -104.21875 134.5078125 C-103.49945313 133.87617188 -102.78015625 133.24453125 -102.0390625 132.59375 C-100.09375 131.1328125 -100.09375 131.1328125 -98.09375 131.1328125 C-97.43375 129.4828125 -96.77375 127.8328125 -96.09375 126.1328125 C-95.10375 126.1328125 -94.11375 126.1328125 -93.09375 126.1328125 C-93.09375 125.4728125 -93.09375 124.8128125 -93.09375 124.1328125 C-91.37890625 122.6953125 -91.37890625 122.6953125 -89.15625 121.1328125 C-86.10742363 119.08464446 -86.10742363 119.08464446 -84.09375 116.1328125 C-83.43375 116.1328125 -82.77375 116.1328125 -82.09375 116.1328125 C-82.09375 115.4728125 -82.09375 114.8128125 -82.09375 114.1328125 C-81.10375 114.1328125 -80.11375 114.1328125 -79.09375 114.1328125 C-79.09375 113.4728125 -79.09375 112.8128125 -79.09375 112.1328125 C-78.43375 112.1328125 -77.77375 112.1328125 -77.09375 112.1328125 C-77.09375 111.1428125 -77.09375 110.1528125 -77.09375 109.1328125 C-76.10375 109.1328125 -75.11375 109.1328125 -74.09375 109.1328125 C-74.09375 108.4728125 -74.09375 107.8128125 -74.09375 107.1328125 C-73.43375 107.1328125 -72.77375 107.1328125 -72.09375 107.1328125 C-72.09375 106.4728125 -72.09375 105.8128125 -72.09375 105.1328125 C-70.6328125 103.625 -70.6328125 103.625 -68.71875 102.0078125 C-68.09226562 101.46898438 -67.46578125 100.93015625 -66.8203125 100.375 C-65.09375 99.1328125 -65.09375 99.1328125 -63.09375 99.1328125 C-63.09375 98.4728125 -63.09375 97.8128125 -63.09375 97.1328125 C-62.43375 96.4728125 -61.77375 95.8128125 -61.09375 95.1328125 C-60.10375 95.1328125 -59.11375 95.1328125 -58.09375 95.1328125 C-58.09375 94.4728125 -58.09375 93.8128125 -58.09375 93.1328125 C-56.71875 91.5078125 -56.71875 91.5078125 -55.09375 90.1328125 C-54.43375 90.1328125 -53.77375 90.1328125 -53.09375 90.1328125 C-53.09375 89.4728125 -53.09375 88.8128125 -53.09375 88.1328125 C-51.44921875 86.44140625 -51.44921875 86.44140625 -49.28125 84.5703125 C-48.57355469 83.95027344 -47.86585937 83.33023438 -47.13671875 82.69140625 C-45.09375 81.1328125 -45.09375 81.1328125 -42.09375 80.1328125 C-42.09375 79.4728125 -42.09375 78.8128125 -42.09375 78.1328125 C-41.10375 78.1328125 -40.11375 78.1328125 -39.09375 78.1328125 C-39.09375 77.4728125 -39.09375 76.8128125 -39.09375 76.1328125 C-38.43375 76.1328125 -37.77375 76.1328125 -37.09375 76.1328125 C-37.09375 75.4728125 -37.09375 74.8128125 -37.09375 74.1328125 C-31.61755952 69.1328125 -31.61755952 69.1328125 -29.09375 69.1328125 C-29.09375 68.4728125 -29.09375 67.8128125 -29.09375 67.1328125 C-28.43375 67.1328125 -27.77375 67.1328125 -27.09375 67.1328125 C-27.09375 66.1428125 -27.09375 65.1528125 -27.09375 64.1328125 C-26.10375 64.1328125 -25.11375 64.1328125 -24.09375 64.1328125 C-24.09375 63.4728125 -24.09375 62.8128125 -24.09375 62.1328125 C-20.63221154 59.1328125 -20.63221154 59.1328125 -18.09375 59.1328125 C-18.09375 58.4728125 -18.09375 57.8128125 -18.09375 57.1328125 C-16.71875 55.5078125 -16.71875 55.5078125 -15.09375 54.1328125 C-14.43375 54.1328125 -13.77375 54.1328125 -13.09375 54.1328125 C-13.09375 53.4728125 -13.09375 52.8128125 -13.09375 52.1328125 C-12.10375 52.1328125 -11.11375 52.1328125 -10.09375 52.1328125 C-10.09375 51.4728125 -10.09375 50.8128125 -10.09375 50.1328125 C-9.43375 50.1328125 -8.77375 50.1328125 -8.09375 50.1328125 C-8.09375 49.4728125 -8.09375 48.8128125 -8.09375 48.1328125 C-7.43375 48.1328125 -6.77375 48.1328125 -6.09375 48.1328125 C-6.09597061 47.54621353 -6.09819122 46.95961456 -6.10047913 46.35523987 C-6.1225321 40.27255866 -6.13765664 34.18988873 -6.14868164 28.10717773 C-6.15372325 25.83438659 -6.16055637 23.5615987 -6.16918945 21.28881836 C-6.18126261 18.02977699 -6.18697987 14.77077833 -6.19140625 11.51171875 C-6.19656754 10.48881241 -6.20172882 9.46590607 -6.20704651 8.41200256 C-6.20712204 7.47110275 -6.20719757 6.53020294 -6.20727539 5.56079102 C-6.209496 4.72806168 -6.21171661 3.89533234 -6.21400452 3.03736877 C-5.96609182 -0.88900087 -3.32792166 0.00394304 0 0 Z " fill="#FFFFFF" transform="translate(171.09375,14.8671875)"/>
<path d="M0 0 C1.65 0 3.3 0 5 0 C5 9.57 5 19.14 5 29 C7.87589844 28.98839844 10.75179687 28.97679687 13.71484375 28.96484375 C16.48819875 28.95705375 19.26155254 28.95097667 22.03491211 28.94506836 C23.96818585 28.94002744 25.90145576 28.93319481 27.8347168 28.92456055 C30.60726872 28.91248435 33.37977041 28.90676943 36.15234375 28.90234375 C37.45702858 28.89460182 37.45702858 28.89460182 38.78807068 28.88670349 C40.85905814 28.88650815 42.92994324 28.93791832 45 29 C46.82595254 30.82595254 46.130419 33.7012322 46.1328125 36.15234375 C46.13410156 37.40337891 46.13539063 38.65441406 46.13671875 39.94335938 C46.13285156 41.26142578 46.12898437 42.57949219 46.125 43.9375 C46.12886719 45.25169922 46.13273438 46.56589844 46.13671875 47.91992188 C46.13542969 49.17224609 46.13414062 50.42457031 46.1328125 51.71484375 C46.13168457 52.87105225 46.13055664 54.02726074 46.12939453 55.21850586 C46 58 46 58 45 60 C31.8 60 18.6 60 5 60 C5.11983069 72.34387102 5.11983069 72.34387102 5.2578125 84.6875 C5.3181197 89.72196539 5.37630119 94.7563925 5.421875 99.79101562 C5.45875071 103.85005664 5.50511681 107.90888846 5.55806351 111.96775055 C5.57659532 113.51625143 5.59170779 115.06479713 5.60334396 116.61336517 C5.62022737 118.7825004 5.64926669 120.9511578 5.68115234 123.12011719 C5.69447601 124.35477722 5.70779968 125.58943726 5.7215271 126.86151123 C6.09287787 131.04676667 7.05916028 133.05916028 10 136 C10 137.32 10 138.64 10 140 C10.66 140 11.32 140 12 140 C12.33 140.66 12.66 141.32 13 142 C13.99 142.33 14.98 142.66 16 143 C16 143.66 16 144.32 16 145 C17.65 145 19.3 145 21 145 C21 145.66 21 146.32 21 147 C21.62648438 146.97679687 22.25296875 146.95359375 22.8984375 146.9296875 C23.71570313 146.91164063 24.53296875 146.89359375 25.375 146.875 C26.18710937 146.85179687 26.99921875 146.82859375 27.8359375 146.8046875 C30 147 30 147 32 149 C35.60058974 149.45762891 39.18095646 149.62805217 42.80419922 149.82568359 C43.85881348 149.88320801 44.91342773 149.94073242 46 150 C46.02465881 153.96930989 46.04284023 157.93859034 46.05493164 161.90795898 C46.05997057 163.25920386 46.06680177 164.61044326 46.07543945 165.96166992 C46.08752419 167.90020434 46.09269828 169.838778 46.09765625 171.77734375 C46.10289307 172.94515381 46.10812988 174.11296387 46.11352539 175.31616211 C46 178 46 178 45 179 C43.00035018 179.08758003 40.9976389 179.10696576 38.99609375 179.09765625 C37.78115234 179.09443359 36.56621094 179.09121094 35.31445312 179.08789062 C34.03505859 179.07951172 32.75566406 179.07113281 31.4375 179.0625 C30.15423828 179.05798828 28.87097656 179.05347656 27.54882812 179.04882812 C24.36583978 179.03699545 21.18294238 179.02051068 18 179 C18 178.67 18 178.34 18 178 C16.081875 177.814375 16.081875 177.814375 14.125 177.625 C10.25 177.25 10.25 177.25 8 175 C6.01178687 174.60235737 4.01055661 174.26224651 2 174 C2 173.67 2 173.34 2 173 C0.7934375 172.814375 0.7934375 172.814375 -0.4375 172.625 C-1.283125 172.41875 -2.12875 172.2125 -3 172 C-3.33 171.34 -3.66 170.68 -4 170 C-4.99 169.67 -5.98 169.34 -7 169 C-7 168.34 -7 167.68 -7 167 C-7.99 167 -8.98 167 -10 167 C-10 166.34 -10 165.68 -10 165 C-10.66 165 -11.32 165 -12 165 C-14.625 162.6875 -14.625 162.6875 -17 160 C-17 159.01 -17 158.02 -17 157 C-17.66 157 -18.32 157 -19 157 C-21.43160605 153.63316085 -22 152.26649636 -22 148 C-22.66 148 -23.32 148 -24 148 C-24 145.36 -24 142.72 -24 140 C-24.66 140 -25.32 140 -26 140 C-26 113.6 -26 87.2 -26 60 C-35.24 60 -44.48 60 -54 60 C-54.33 58.68 -54.66 57.36 -55 56 C-54.34 56 -53.68 56 -53 56 C-52.7525 55.4225 -52.505 54.845 -52.25 54.25 C-50.81700012 51.67060021 -49.21575324 49.93878408 -47 48 C-46.34 48 -45.68 48 -45 48 C-45 47.01 -45 46.02 -45 45 C-44.34 45 -43.68 45 -43 45 C-43 44.34 -43 43.68 -43 43 C-42.01 43 -41.02 43 -40 43 C-40 42.34 -40 41.68 -40 41 C-39.34 41 -38.68 41 -38 41 C-38 40.01 -38 39.02 -38 38 C-37.34 38 -36.68 38 -36 38 C-36 37.34 -36 36.68 -36 36 C-35.01 36 -34.02 36 -33 36 C-32.773125 35.21625 -32.54625 34.4325 -32.3125 33.625 C-31 31 -31 31 -28.375 29.6875 C-27.199375 29.3471875 -27.199375 29.3471875 -26 29 C-26 28.01 -26 27.02 -26 26 C-25.34 26 -24.68 26 -24 26 C-24 25.34 -24 24.68 -24 24 C-23.01 24 -22.02 24 -21 24 C-21 23.34 -21 22.68 -21 22 C-20.34 22 -19.68 22 -19 22 C-19 21.01 -19 20.02 -19 19 C-18.34 19 -17.68 19 -17 19 C-17 18.34 -17 17.68 -17 17 C-16.01 17 -15.02 17 -14 17 C-13.773125 16.21625 -13.54625 15.4325 -13.3125 14.625 C-12 12 -12 12 -9.375 10.6875 C-8.59125 10.460625 -7.8075 10.23375 -7 10 C-7 9.01 -7 8.02 -7 7 C-6.34 7 -5.68 7 -5 7 C-5 6.34 -5 5.68 -5 5 C-4.01 5 -3.02 5 -2 5 C-2 4.01 -2 3.02 -2 2 C-1.34 1.34 -0.68 0.68 0 0 Z " fill="#FFFFFF" transform="translate(584,117)"/>
<path d="" fill="#FFFFFF" transform="translate(0,0)"/>
</svg>
