<?xml version="1.0" encoding="UTF-8"?>
<svg version="1.1" xmlns="http://www.w3.org/2000/svg" width="32" height="32">
<path d="M0 0 C2.8771875 0.12375 2.8771875 0.12375 5.8125 0.25 C5.8125 6.85 5.8125 13.45 5.8125 20.25 C4.4925 20.25 3.1725 20.25 1.8125 20.25 C1.8125 16.95 1.8125 13.65 1.8125 10.25 C-0.1675 10.91 -2.1475 11.57 -4.1875 12.25 C-4.5175 14.89 -4.8475 17.53 -5.1875 20.25 C-6.5075 20.25 -7.8275 20.25 -9.1875 20.25 C-9.26862454 17.66603321 -9.32804748 15.08462432 -9.375 12.5 C-9.40013672 11.77039062 -9.42527344 11.04078125 -9.45117188 10.2890625 C-9.49419199 7.13425436 -9.36565599 4.6459022 -8.0625 1.75 C-5.3591432 -0.41268544 -3.40982965 -0.14665934 0 0 Z M-3.9375 3.5625 C-5.48511378 5.3017724 -5.48511378 5.3017724 -5.1875 8.25 C-2.8775 8.25 -0.5675 8.25 1.8125 8.25 C1.8125 6.27 1.8125 4.29 1.8125 2.25 C-2.01875 1.85 -2.01875 1.85 -3.9375 3.5625 Z " fill="#ABABAB" transform="translate(10.1875,5.75)"/>
<path d="M0 0 C1.51400391 0.01740234 1.51400391 0.01740234 3.05859375 0.03515625 C4.07050781 0.04417969 5.08242188 0.05320312 6.125 0.0625 C7.29869141 0.07990234 7.29869141 0.07990234 8.49609375 0.09765625 C8.49609375 0.75765625 8.49609375 1.41765625 8.49609375 2.09765625 C5.85609375 2.42765625 3.21609375 2.75765625 0.49609375 3.09765625 C1.23581311 6.47849232 1.23581311 6.47849232 4.99609375 7.91015625 C7.9576821 9.50063888 8.3749976 9.77473319 9.62109375 13.09765625 C9.47474595 16.6100035 8.94423264 17.63372291 6.49609375 20.09765625 C4.015625 20.48828125 4.015625 20.48828125 1.30859375 20.34765625 C0.40753906 20.3115625 -0.49351563 20.27546875 -1.421875 20.23828125 C-2.10894531 20.191875 -2.79601562 20.14546875 -3.50390625 20.09765625 C-3.50390625 19.43765625 -3.50390625 18.77765625 -3.50390625 18.09765625 C0.45609375 17.60265625 0.45609375 17.60265625 4.49609375 17.09765625 C3.49826617 13.7413271 2.8775178 12.35814097 -0.06640625 10.34765625 C-0.87078125 9.93515625 -1.67515625 9.52265625 -2.50390625 9.09765625 C-3.50390625 8.09765625 -3.50390625 8.09765625 -3.62890625 4.59765625 C-3.469537 0.13531736 -3.469537 0.13531736 0 0 Z " fill="#00FF83" transform="translate(21.50390625,5.90234375)"/>
</svg>
